<svg width="17" height="17" viewBox="0 0 17 17" fill="none" xmlns="http://www.w3.org/2000/svg">
<path d="M8.29053 16.0254C6.06111 16.0254 4.2691 15.3269 2.91452 13.93C1.57405 12.5331 0.903809 10.7834 0.903809 8.68102C0.903809 6.32461 1.71515 4.37739 3.33783 2.83938C4.97462 1.30136 6.90772 0.532349 9.13714 0.532349C11.2113 0.532349 12.9257 1.14614 14.2803 2.37374C15.649 3.60133 16.3334 5.21695 16.3334 7.22061C16.3334 8.92795 15.9665 10.2261 15.2328 11.115C14.5131 12.004 13.6242 12.4485 12.5659 12.4485C11.4371 12.4485 10.6963 12.0252 10.3436 11.1785C10.0755 11.5454 9.68744 11.8488 9.17947 12.0886C8.6715 12.3144 8.15648 12.4273 7.6344 12.4273C6.70312 12.4273 5.92706 12.0957 5.30621 11.4325C4.68536 10.7693 4.37493 9.88039 4.37493 8.76568C4.37493 7.45343 4.79118 6.35988 5.62369 5.48505C6.45619 4.5961 7.46508 4.15163 8.65034 4.15163C9.25708 4.15163 9.77916 4.29979 10.2166 4.5961C10.654 4.89242 10.9433 5.24517 11.0844 5.65437L11.3383 4.34212H12.9469L11.8886 9.37948C11.6629 10.4942 11.938 11.0515 12.7141 11.0515C13.3773 11.0515 13.8994 10.727 14.2803 10.0779C14.6613 9.42886 14.8518 8.46231 14.8518 7.17828C14.8518 5.59793 14.3085 4.32801 13.2221 3.36851C12.1497 2.3949 10.781 1.9081 9.11598 1.9081C7.28164 1.9081 5.70129 2.53601 4.37493 3.79182C3.06268 5.04763 2.40655 6.67736 2.40655 8.68102C2.40655 10.4448 2.93568 11.884 3.99395 12.9988C5.06633 14.0994 6.49852 14.6497 8.29053 14.6497C9.7721 14.6497 11.0702 14.3745 12.185 13.8242V15.3269C10.9856 15.7926 9.68744 16.0254 8.29053 16.0254ZM7.86722 10.988C8.5304 10.988 9.10892 10.7623 9.60278 10.3108C10.1107 9.84512 10.4282 9.26659 10.5552 8.57519C10.6963 7.72858 10.5905 7.02307 10.2377 6.45865C9.89909 5.88013 9.37702 5.59087 8.6715 5.59087C8.00832 5.59087 7.4298 5.82369 6.93594 6.28933C6.44208 6.74086 6.13166 7.31233 6.00466 8.00373C5.86356 8.85034 5.96939 9.56291 6.32215 10.1414C6.6749 10.7058 7.18993 10.988 7.86722 10.988Z" fill="#7D8CCC"/>
</svg>
