<svg width="133" height="29" viewBox="0 0 133 29" fill="none" xmlns="http://www.w3.org/2000/svg">
<path d="M1.76491 25.2712C3.73353 24.2363 5.63161 23.0797 7.53882 21.9379C8.88853 21.1321 10.1805 20.2334 11.4055 19.2483C12.0105 18.7581 12.6281 18.2827 13.1456 17.6948C13.7244 17.0374 13.7472 16.5859 13.2331 15.8751C12.8306 15.3201 12.296 14.9005 11.7683 14.4729C11.1802 13.9952 10.5547 13.5562 10.0886 12.9466C9.55179 12.2472 9.55179 11.7173 10.142 11.0736C10.9949 10.1433 12.0755 9.5508 13.2262 9.0663C13.5562 8.92644 13.6483 9.08224 13.6699 9.38588C13.7256 10.182 14.1007 10.8257 14.6091 11.4102C15.0583 11.9254 15.6031 12.3314 16.1377 12.7499C16.6723 13.1684 17.1681 13.5699 17.5309 14.1351C18.0802 14.9915 18.03 15.7728 17.3783 16.5438C16.9051 17.0847 16.3708 17.569 15.7863 17.987C12.5836 20.3605 9.08323 22.2427 5.60886 24.1624C4.09517 24.9983 2.18455 26.0468 0.646973 26.8657V25.8967C0.827806 25.7898 1.32025 25.5055 1.76491 25.2712Z" fill="white"/>
<path d="M0 0.00341797V28.7762H22.2439V0.00341797H0ZM0.71876 28.0609V0.722169H21.5306V1.76732C19.9966 2.58501 17.9789 3.70068 16.4756 4.52747C13 6.44831 9.50074 8.32822 6.30161 10.7028C5.71693 11.1212 5.18264 11.6059 4.70942 12.1471C4.05664 12.9171 4.00772 13.6995 4.55705 14.5547C4.91983 15.1234 5.43047 15.5339 5.9502 15.9399C6.46993 16.3459 7.02945 16.7644 7.47755 17.2808C7.98702 17.8642 8.36234 18.5124 8.41806 19.3051C8.43966 19.6076 8.53177 19.76 8.86158 19.6247C10.0102 19.1402 11.093 18.5465 11.9459 17.6174C12.5362 16.9737 12.5362 16.4426 11.9992 15.7432C11.532 15.1336 10.9074 14.6946 10.3196 14.2181C9.79186 13.7905 9.25622 13.3708 8.85364 12.8147C8.33957 12.1051 8.36346 11.6524 8.94118 10.9951C9.45865 10.4071 10.0785 9.93174 10.6812 9.44273C11.9059 8.45688 13.198 7.55777 14.5479 6.75195C16.4506 5.61469 18.3531 4.45355 20.3218 3.41864C20.7448 3.19118 21.3227 2.86137 21.5342 2.73627V28.0609H0.71876Z" fill="white"/>
<path d="M118.099 24.7034C116.714 24.7567 116.656 23.774 116.626 22.7411C116.533 19.5148 116.434 16.2885 116.329 13.0622C116.275 11.4587 116.266 11.4587 117.761 11.0756C117.947 11.0294 118.181 11.0563 118.173 10.7669C118.164 10.4471 117.936 10.4106 117.69 10.4147C117.169 10.4147 116.647 10.4299 116.125 10.4339C114.07 10.4512 114.611 10.0868 113.828 11.9665C112.512 15.1391 111.228 18.3274 109.857 21.686C109.71 21.3945 109.639 21.2836 109.593 21.1624C108.33 17.854 107.054 14.5512 105.826 11.2271C105.588 10.585 105.291 10.3458 104.62 10.4071C103.839 10.4492 103.055 10.4492 102.274 10.4071C102.006 10.4071 101.652 10.3878 101.627 10.6924C101.592 11.1293 101.988 11.0467 102.274 11.0756C103.424 11.1541 103.677 11.4222 103.602 12.5412C103.37 16.028 103.132 19.5143 102.885 23.0001C102.82 23.9579 102.582 24.7455 101.419 24.705C101.213 24.705 100.909 24.6609 100.942 25.0308C100.971 25.3471 101.235 25.3663 101.462 25.3451C102.76 25.2189 104.066 25.2189 105.363 25.3451C105.625 25.3719 105.939 25.3603 105.92 24.9736C105.902 24.6513 105.605 24.709 105.385 24.6822C103.972 24.4906 103.782 24.3411 103.825 22.8602C103.899 20.1777 104.042 17.4957 104.163 14.8021C104.191 14.1716 104.245 13.5411 104.287 12.9112C104.532 13.1737 104.717 13.4895 104.83 13.8346C106.141 17.2312 107.448 20.6318 108.772 24.0233C108.876 24.2874 108.904 24.7187 109.222 24.747C109.584 24.782 109.593 24.3355 109.69 24.0826C111.111 20.5877 112.513 17.0837 113.94 13.5913C114.054 13.3151 114.055 12.9127 114.518 12.7941C114.542 13.1469 114.573 13.4743 114.583 13.8037C114.663 16.6595 114.74 19.5163 114.811 22.3737C114.854 24.186 114.781 24.2742 113.084 24.6862C112.898 24.7318 112.671 24.7283 112.686 25.0136C112.699 25.2685 112.886 25.3567 113.093 25.341C114.75 25.2184 116.414 25.2184 118.071 25.341C118.282 25.3567 118.477 25.2741 118.495 25.0288C118.514 24.7835 118.285 24.6974 118.099 24.7034ZM58.7934 24.7034C57.7531 24.7298 57.4354 24.1282 57.4372 23.1704C57.4447 19.639 57.4447 16.1086 57.4372 12.5797C57.4372 11.6771 57.7308 11.0832 58.7376 11.0948C58.9921 11.0948 59.4417 11.1734 59.3692 10.7117C59.3098 10.3285 58.9086 10.4147 58.6261 10.4395C57.2302 10.5698 55.8256 10.5698 54.4297 10.4395C54.1343 10.4106 53.6551 10.2824 53.6253 10.7365C53.5919 11.2327 54.1046 11.0624 54.3832 11.1197C54.8477 11.2023 55.2954 11.2555 55.4625 11.813C55.6483 12.4054 55.5684 12.9127 55.1059 13.3688C54.5895 13.8787 54.1158 14.4377 53.6309 14.9784L47.8907 21.3505C47.8907 18.222 47.8907 15.4112 47.8907 12.5853C47.8907 11.6386 48.2622 11.0431 49.2877 11.0796C49.5236 11.0887 49.8765 11.1313 49.8227 10.7056C49.7855 10.3995 49.5069 10.3954 49.2821 10.4182C47.724 10.5581 46.1571 10.5581 44.5989 10.4182C44.3649 10.401 44.1122 10.4051 44.1066 10.7385C44.1011 11.0715 44.389 11.0811 44.6008 11.068C45.773 10.993 46.0423 11.744 46.0442 12.7272C46.0516 16.1562 46.0516 19.5858 46.0442 23.0153C46.0442 23.9924 45.7823 24.7511 44.6119 24.6918C44.4039 24.6801 44.1104 24.6553 44.1122 25.0116C44.1141 25.3679 44.3686 25.3527 44.6008 25.3354C46.1601 25.2097 47.7265 25.2097 49.2858 25.3354C49.5477 25.3582 49.8431 25.3491 49.832 24.9523C49.8134 24.594 49.5013 24.6994 49.3025 24.6862C48.7267 24.6457 48.1879 24.5808 48.0022 23.8814C47.8164 23.182 47.8443 22.5404 48.3997 21.9444C50.6289 19.5341 52.8024 17.0801 55.0037 14.6485C55.1393 14.501 55.2229 14.204 55.561 14.3404C55.561 17.2139 55.5499 20.1149 55.561 23.0036C55.561 24.0248 55.3009 24.7283 54.1399 24.6766C53.93 24.6766 53.6197 24.6573 53.6179 24.9827C53.6179 25.3664 53.9467 25.3527 54.1956 25.3314C55.7219 25.2011 57.256 25.2011 58.7822 25.3314C59.0423 25.3547 59.3655 25.3699 59.3804 24.9999C59.3971 24.594 59.0144 24.6898 58.7896 24.6953L58.7934 24.7034ZM99.4093 21.6936C99.0619 21.6074 99.0265 22.0767 98.9282 22.3352C98.4751 23.5424 97.769 24.4597 96.4147 24.5403C95.5356 24.593 94.6545 24.597 93.7749 24.5519C92.9056 24.5058 92.369 23.9772 92.3429 23.0786C92.2943 21.4331 92.3188 19.7834 92.3129 18.1358C92.3129 17.8596 92.3355 17.6315 92.6677 17.5165C94.4736 16.8977 96.1842 17.7562 96.7827 19.6126C96.8623 19.862 96.8682 20.2218 97.2024 20.1873C97.5739 20.1453 97.4515 19.7697 97.4422 19.5285C97.3935 18.2179 97.2712 16.9093 97.4869 15.6028C97.5292 15.3479 97.5759 15.0068 97.2471 14.9379C96.9719 14.8806 96.8864 15.1791 96.8309 15.4072C96.5803 16.4456 95.8555 16.7578 94.9174 16.7487C94.2653 16.7487 93.6171 16.7487 92.9616 16.7487C92.5527 16.7487 92.3002 16.5931 92.3075 16.0893C92.3296 14.7098 92.3188 13.3323 92.3075 11.9528C92.3075 11.5565 92.4545 11.2671 92.8368 11.2458C94.2024 11.1734 95.5842 11.0198 96.909 11.4876C97.799 11.8018 98.1071 12.6542 98.4157 13.4783C98.4825 13.6562 98.6014 13.8883 98.8299 13.8174C99.0584 13.7464 98.9989 13.4859 99.0044 13.2999C99.025 12.5605 99.0044 11.8211 99.0471 11.0811C99.0766 10.5525 98.9021 10.3954 98.3822 10.4071C96.8515 10.4451 95.3169 10.4203 93.7842 10.4203H89.1847C88.9026 10.4203 88.5178 10.3321 88.5139 10.773C88.5139 11.1561 88.8859 11.0928 89.1218 11.0852C90.1174 11.0563 90.422 11.6482 90.4314 12.5509C90.4314 14.1985 90.45 15.8461 90.45 17.4937C90.45 19.4094 90.45 21.3256 90.4274 23.2413C90.4181 24.0076 90.223 24.6437 89.2923 24.6898C89.0176 24.7035 88.4898 24.5195 88.5272 25.0232C88.5645 25.527 89.0992 25.3603 89.4097 25.3314C92.083 25.0729 94.7523 25.4064 97.4255 25.3663C99.1606 25.3395 99.1587 25.3795 99.3778 23.6417C99.424 23.2758 99.5336 22.9175 99.5636 22.5516C99.597 22.247 99.8515 21.8066 99.4058 21.686L99.4093 21.6936ZM132.565 24.7034C131.575 24.6421 131.203 23.9194 130.906 23.0959C130.36 21.5861 129.792 20.0819 129.249 18.5742C128.278 15.9018 127.314 13.2254 126.338 10.5546C126.264 10.3513 126.255 10.0564 125.957 10.0255C125.569 9.98746 125.617 10.361 125.513 10.5774C125.427 10.7938 125.35 11.0142 125.285 11.2382C123.865 15.24 122.446 19.2422 121.025 23.2454C120.76 23.9904 120.43 24.6746 119.48 24.6609C119.262 24.6609 118.868 24.6229 118.913 25.0308C118.958 25.4388 119.34 25.3815 119.613 25.3471C120.781 25.2204 121.958 25.2204 123.126 25.3471C123.39 25.3719 123.791 25.4905 123.821 25.0384C123.851 24.5864 123.405 24.709 123.163 24.6553C121.746 24.3603 121.649 24.2088 122.08 22.7837C122.147 22.5592 122.22 22.3372 122.29 22.1132C123.003 19.8731 123.003 19.8731 125.32 19.8716C127.636 19.8696 127.627 19.8716 128.422 22.0878C128.514 22.3392 128.608 22.5901 128.697 22.843C129.212 24.2701 129.152 24.3756 127.698 24.5864C127.445 24.6249 127.141 24.6016 127.141 24.9964C127.152 25.3202 127.408 25.3527 127.635 25.3451C129.262 25.2934 130.889 25.1687 132.517 25.3451C132.717 25.3679 132.942 25.3202 132.989 25.0866C133.059 24.7491 132.792 24.7111 132.561 24.6953L132.565 24.7034ZM126.621 19.1165C125.71 19.08 124.798 19.0972 123.888 19.1165C123.503 19.1165 123.317 18.9862 123.455 18.5894C124.024 16.9286 124.605 15.2734 125.257 13.3998L127.1 18.3943C127.271 18.86 127.222 19.1337 126.617 19.1089L126.621 19.1165ZM87.3567 9.53691C87.11 9.50245 87.0259 9.71733 86.965 9.90891C86.8309 10.3321 86.534 10.4243 86.138 10.4223C83.1046 10.4106 80.0731 10.4223 77.0356 10.4127C76.7068 10.4127 76.3501 10.4431 76.2703 9.98543C76.2294 9.74217 76.2071 9.49282 75.8987 9.51411C75.6294 9.53134 75.5272 9.74572 75.464 9.98746C75.1743 11.0183 74.8807 12.0481 74.5835 13.0774C74.5166 13.3131 74.4479 13.5741 74.7098 13.6983C75.0517 13.8594 75.1594 13.5335 75.2671 13.3151C76.1625 11.4952 77.658 10.9914 79.5158 11.1769C80.0284 11.2271 80.2849 11.3553 80.2829 11.93C80.2618 15.6621 80.2505 19.3947 80.2495 23.1283C80.2495 24.1227 79.9134 24.7435 78.8209 24.6842C78.5812 24.6705 78.1353 24.5788 78.1837 25.0673C78.219 25.4216 78.5552 25.3719 78.8171 25.3547C80.3768 25.2224 81.9444 25.2224 83.5041 25.3547C83.7753 25.3815 84.1876 25.4601 84.2023 25.0425C84.2176 24.6249 83.7901 24.6746 83.5227 24.6781C82.4471 24.6918 82.1109 24.0806 82.1237 23.0746C82.1444 21.2582 82.1237 19.4347 82.1237 17.626V13.794C82.1237 11.1121 82.1237 11.1485 84.7596 11.1713C85.6888 11.181 86.2181 11.6199 86.5468 12.4358C86.6559 12.7161 86.7478 13.0034 86.822 13.2959C86.8756 13.5087 86.9611 13.6907 87.1935 13.679C87.4608 13.6658 87.4402 13.4185 87.4721 13.2269C87.6579 12.1601 87.6004 11.0811 87.6245 10.0082C87.6338 9.78626 87.5965 9.56986 87.3532 9.53337L87.3567 9.53691ZM42.4013 21.5304C41.8849 21.3657 41.844 22.0671 41.6582 22.4117C39.9585 25.5407 36.7057 26.0941 34.1384 23.6706C31.2832 20.9709 31.142 15.1183 33.8635 12.2959C36.3045 9.767 39.912 10.137 41.7548 13.1083C41.8471 13.2847 41.9573 13.4504 42.0836 13.6025C42.1117 13.6334 42.1461 13.6572 42.1843 13.6729C42.2225 13.6881 42.2634 13.6947 42.3043 13.6917C42.3452 13.6886 42.3849 13.6765 42.4207 13.6557C42.4564 13.6349 42.4872 13.6065 42.5109 13.5721C42.8936 13.0987 42.2899 10.8592 41.7028 10.6559C40.2824 10.1496 38.7809 9.92816 37.2797 10.0047C35.2354 10.102 33.3105 11.0264 31.9219 12.5767C30.5332 14.127 29.7926 16.1796 29.8602 18.2889C29.9438 22.5039 33.2635 25.7475 37.5305 25.7895C38.0184 25.7723 38.505 25.7302 38.9888 25.6628C39.5969 25.5523 40.1967 25.3968 40.7833 25.1976C42.4069 24.636 42.5202 24.4713 42.5815 22.6914C42.5964 22.2875 42.8434 21.6667 42.405 21.5268L42.4013 21.5304ZM73.5767 21.5304C73.0324 21.3677 72.9859 22.1304 72.7816 22.5019C71.1803 25.4256 68.2804 26.0424 65.6927 23.9808C62.5217 21.4538 62.152 15.4036 64.9849 12.3841C67.4668 9.73811 71.0855 10.1116 72.9729 13.2082C73.0458 13.3557 73.1398 13.491 73.2515 13.6101C73.2802 13.64 73.3151 13.6628 73.3535 13.6765C73.3918 13.6902 73.4328 13.6952 73.4732 13.6902C73.5136 13.6856 73.5524 13.6714 73.5867 13.6486C73.621 13.6263 73.65 13.5959 73.6714 13.5604C74.0838 12.9857 73.4949 10.8784 72.8392 10.658C71.3579 10.1268 69.7868 9.91448 68.2229 10.0331C66.2026 10.1968 64.3228 11.1627 62.9799 12.7282C61.637 14.2932 60.9358 16.3351 61.0244 18.4232C61.2102 22.6266 64.4908 25.7571 68.8266 25.7682C69.787 25.8453 70.7995 25.6 71.7989 25.2858C72.9915 24.9123 74.0039 24.3832 73.755 22.7852C73.7011 22.3448 74.1247 21.686 73.5804 21.5207L73.5767 21.5304ZM95.8147 7.5908C95.8879 7.59029 95.9606 7.58218 96.0319 7.56546C96.0977 7.54822 96.1606 7.52035 96.2181 7.48335C96.282 7.4418 96.3405 7.39264 96.3926 7.33587C96.453 7.26644 96.507 7.19143 96.5542 7.11136L97.0407 6.30099C97.1336 6.31264 97.2265 6.31822 97.3174 6.32024C97.4088 6.32227 97.5036 6.32024 97.5759 6.32024V6.91979C97.5778 7.00797 97.5729 7.09565 97.5611 7.18232C97.5557 7.23553 97.5385 7.28672 97.511 7.33182C97.4874 7.36628 97.452 7.3901 97.4122 7.39922C97.3606 7.41088 97.3075 7.41595 97.2545 7.41443H97.1989V7.55633L97.5036 7.54468H97.7562H97.994L98.3002 7.55633V7.40835H98.2279C98.1822 7.40987 98.137 7.40227 98.0943 7.38757C98.0564 7.37186 98.026 7.34246 98.0088 7.30496C97.9827 7.25124 97.967 7.19245 97.9621 7.13265C97.9523 7.03483 97.9478 6.93601 97.9493 6.83769V6.78194C97.9493 6.75508 97.9493 6.7267 97.9493 6.69376V6.58682C97.9493 6.54831 97.9493 6.51182 97.9493 6.47381V5.58488C97.9493 5.52913 97.9493 5.47338 97.9493 5.41814V5.26458C97.9493 5.21897 97.9493 5.18805 97.9493 5.17082C97.9478 5.07554 97.9523 4.98026 97.9621 4.88549C97.968 4.8267 97.9842 4.76943 98.0107 4.71672C98.0284 4.68074 98.0589 4.65236 98.0957 4.63817C98.1385 4.62398 98.1832 4.61739 98.2279 4.61891H98.2835L98.2727 4.46383C98.1778 4.46383 98.0869 4.47549 97.9955 4.47903H97.7282C97.6874 4.47903 97.6387 4.47903 97.5813 4.47903H97.4122H97.2545H97.1429C96.9793 4.47549 96.8161 4.50184 96.6618 4.55759C96.5351 4.6027 96.4176 4.67213 96.3164 4.76285C96.2299 4.83937 96.1606 4.93465 96.113 5.04108C96.0653 5.14801 96.0402 5.26407 96.0397 5.38165C96.0378 5.48757 96.0525 5.59298 96.084 5.69384C96.1129 5.77999 96.1547 5.86108 96.2088 5.93356C96.2604 6.00147 96.3233 6.05975 96.3945 6.10587C96.4658 6.15452 96.5434 6.19304 96.6245 6.22091L96.253 6.80677C96.1695 6.93702 96.0972 7.04446 96.0338 7.13062C95.9817 7.20208 95.9247 7.26898 95.8628 7.33182C95.8206 7.37389 95.7714 7.40784 95.7184 7.43369C95.6736 7.45092 95.6265 7.46004 95.5788 7.46055H95.5586V7.58472L95.6864 7.59992L95.8147 7.5908ZM96.593 5.81851C96.5513 5.76074 96.5188 5.69587 96.4982 5.62694C96.4741 5.53775 96.4618 5.44551 96.4633 5.35276C96.4623 5.259 96.482 5.16575 96.5208 5.08061C96.5582 5.00104 96.6122 4.93009 96.6786 4.87384C96.7518 4.81353 96.8358 4.76893 96.9257 4.74156C97.0284 4.70811 97.1356 4.69189 97.2432 4.69392C97.2992 4.69088 97.3547 4.69088 97.4107 4.69392L97.5719 4.71672C97.5719 4.7821 97.5719 4.84342 97.5719 4.90829C97.5719 4.97367 97.5719 5.02892 97.5719 5.09987C97.5719 5.17082 97.5719 5.22454 97.5719 5.29144C97.5719 5.35834 97.5719 5.42929 97.5719 5.50784V6.06938L97.4609 6.08661C97.4088 6.09269 97.3567 6.09624 97.3046 6.09624C97.2358 6.09624 97.167 6.09624 97.0982 6.08661C97.0314 6.07951 96.9655 6.06532 96.9016 6.04455C96.8402 6.02478 96.7812 5.99741 96.7267 5.96194C96.6751 5.91936 96.6309 5.86767 96.597 5.80888L96.593 5.81851ZM92.9021 7.53302H93.14L93.426 7.54468V7.3972H93.3699C93.3056 7.40125 93.2412 7.38655 93.1842 7.35513C93.1645 7.33638 93.1493 7.31307 93.14 7.28671C93.1306 7.26087 93.1272 7.23299 93.1306 7.20563C93.137 7.11896 93.1552 7.03382 93.1842 6.95273C93.2196 6.83364 93.2884 6.64612 93.3867 6.38765H93.6505H93.9179H94.2412H94.4589L94.6648 7.04852C94.6761 7.08653 94.6854 7.12099 94.6908 7.14988C94.6962 7.17522 94.6997 7.20056 94.7002 7.22641C94.7026 7.25124 94.6992 7.27607 94.6898 7.29888C94.6805 7.32168 94.6653 7.34196 94.6461 7.35665C94.5822 7.38706 94.512 7.39973 94.4422 7.39314H94.4029V7.54062L94.7002 7.52947H94.9567H95.1852L95.4825 7.54062V7.39314H95.4358C95.3744 7.39669 95.313 7.37997 95.2614 7.34551C95.196 7.27253 95.1464 7.18637 95.1164 7.09261C95.0235 6.85492 94.8957 6.49965 94.7336 6.02731C94.5699 5.55396 94.3994 5.03297 94.2171 4.45978H93.8569C93.6363 5.06794 93.4265 5.62491 93.2269 6.1307C93.0274 6.63649 92.8894 6.97351 92.8127 7.14228C92.7788 7.2183 92.7262 7.28418 92.6604 7.33385C92.5886 7.37541 92.507 7.39669 92.4245 7.39517V7.54062L92.6977 7.52947L92.9021 7.53302ZM93.9498 4.86623L94.3788 6.15756H94.2859H93.9144H93.593H93.4781L93.9498 4.86623ZM122.001 7.52745H122.699H123.028H123.213L123.39 7.53708L123.539 7.54823C123.574 7.55127 123.609 7.55633 123.644 7.56394C123.694 7.57661 123.742 7.59536 123.788 7.61918C123.838 7.65009 123.882 7.69114 123.915 7.7398C123.959 7.80517 123.993 7.87663 124.014 7.95265C124.045 8.0606 124.064 8.17159 124.07 8.2841H124.224V8.04489C124.224 8.02715 124.224 8.0008 124.224 7.96634C124.224 7.93137 124.224 7.88576 124.224 7.82443C124.224 7.76311 124.224 7.6881 124.235 7.59992C124.246 7.51224 124.246 7.40835 124.256 7.27455L124.048 7.29381C124.008 7.29989 123.968 7.29989 123.929 7.29381C123.914 7.29229 123.9 7.28722 123.887 7.27861C123.875 7.2705 123.865 7.25935 123.858 7.24567C123.84 7.20411 123.831 7.159 123.832 7.11339C123.832 7.05409 123.832 6.97554 123.832 6.87621V6.74951C123.832 6.70136 123.832 6.64815 123.832 6.58682C123.832 6.5255 123.832 6.46975 123.832 6.42008V5.58082C123.832 5.53116 123.832 5.47541 123.832 5.41611C123.832 5.35682 123.832 5.30512 123.832 5.26255V5.16879C123.82 5.01776 123.839 4.86522 123.889 4.7223C123.914 4.6853 123.946 4.65591 123.986 4.63766C124.025 4.61891 124.068 4.61182 124.111 4.61689H124.167V4.46586C124.066 4.46586 123.972 4.47751 123.884 4.47903C123.797 4.48106 123.715 4.47903 123.639 4.47903C123.563 4.47903 123.462 4.47903 123.373 4.47903C123.284 4.47903 123.187 4.47904 123.098 4.46586V4.61689H123.156C123.2 4.61182 123.243 4.6179 123.284 4.63564C123.324 4.65287 123.36 4.68074 123.386 4.71672C123.441 4.88701 123.461 5.06692 123.446 5.24532V5.69941L123.436 7.28216C123.158 7.28216 122.907 7.29533 122.684 7.29533H122.298H121.9L121.889 5.7131V5.22454C121.874 5.05577 121.894 4.886 121.948 4.72636C121.976 4.69139 122.012 4.66402 122.053 4.64729C122.093 4.63057 122.137 4.62499 122.181 4.63057H122.236V4.47903C122.144 4.47903 122.051 4.49069 121.963 4.49272C121.876 4.49474 121.787 4.49272 121.701 4.49272C121.616 4.49272 121.543 4.49272 121.454 4.49272C121.365 4.49272 121.268 4.49272 121.17 4.47903V4.63057H121.224C121.267 4.6255 121.311 4.6331 121.35 4.65236C121.39 4.67162 121.423 4.70203 121.447 4.73953C121.5 4.89461 121.521 5.05882 121.508 5.22251V5.3107C121.508 5.34921 121.508 5.39483 121.508 5.4526C121.508 5.50987 121.508 5.55599 121.508 5.60211V6.43124C121.508 6.48141 121.508 6.53665 121.508 6.59797C121.508 6.6593 121.508 6.70947 121.508 6.75153V6.84732C121.521 7.00291 121.501 7.15951 121.451 7.30699C121.427 7.34449 121.394 7.3749 121.354 7.39416C121.314 7.41342 121.271 7.42102 121.228 7.41646H121.157V7.56546H121.606L122.001 7.52745ZM125.123 7.52745H125.376L125.679 7.53859V7.3896H125.606C125.561 7.39517 125.515 7.38706 125.473 7.36679C125.431 7.34652 125.397 7.31459 125.372 7.27455C125.328 7.18536 125.307 7.08653 125.311 6.9872C125.584 6.70136 125.868 6.41248 126.138 6.14033C126.407 5.86818 126.695 5.58488 126.977 5.3107V6.82401C126.991 6.98264 126.97 7.14278 126.916 7.29178C126.889 7.32726 126.854 7.35514 126.813 7.37237C126.773 7.38909 126.729 7.39517 126.686 7.3896H126.613V7.53859L126.916 7.52745H127.171H127.408L127.715 7.53859V7.39112H127.64C127.598 7.39568 127.555 7.38808 127.516 7.36932C127.478 7.35057 127.445 7.32067 127.421 7.28418C127.37 7.1362 127.349 6.97858 127.362 6.82248V6.72467C127.362 6.68413 127.362 6.63446 127.362 6.57314C127.362 6.51182 127.362 6.45657 127.362 6.4064V5.56764C127.362 5.51747 127.362 5.46223 127.362 5.40243C127.362 5.34313 127.362 5.29144 127.362 5.24937V5.15562C127.349 5.00408 127.37 4.85153 127.421 4.70912C127.444 4.67213 127.477 4.64273 127.516 4.62398C127.555 4.60523 127.598 4.59813 127.64 4.60371H127.698V4.45218C127.598 4.45218 127.512 4.46383 127.416 4.46586C127.319 4.46789 127.245 4.46586 127.171 4.46586C127.096 4.46586 126.994 4.46586 126.905 4.46586C126.815 4.46586 126.719 4.46586 126.63 4.45218V4.60371H126.686C126.729 4.59813 126.773 4.60422 126.814 4.62145C126.854 4.63919 126.889 4.66706 126.916 4.70355C126.958 4.7821 126.98 4.8713 126.979 4.96202C126.706 5.24735 126.422 5.53673 126.152 5.80888C125.883 6.08103 125.595 6.36637 125.313 6.64055V5.19768C125.298 5.02892 125.318 4.85914 125.372 4.69949C125.4 4.66453 125.435 4.63716 125.476 4.62043C125.517 4.60371 125.561 4.59813 125.604 4.60371H125.66V4.45218C125.567 4.45218 125.474 4.46383 125.387 4.46586C125.3 4.46789 125.201 4.46586 125.125 4.46586C125.049 4.46586 124.967 4.46586 124.878 4.46586C124.789 4.46586 124.692 4.46586 124.592 4.45218V4.60371H124.648C124.691 4.59864 124.735 4.60624 124.774 4.6255C124.813 4.64476 124.847 4.67517 124.87 4.71318C124.924 4.86826 124.944 5.03348 124.932 5.19768V5.28384C124.932 5.32235 124.932 5.36999 124.932 5.42574C124.932 5.48098 124.932 5.53115 124.932 5.57677V6.4064C124.932 6.45657 124.932 6.51182 124.932 6.57314C124.932 6.63446 124.932 6.68413 124.932 6.72467V6.82248C124.945 6.97909 124.924 7.1362 124.872 7.28418C124.849 7.32118 124.816 7.35108 124.776 7.37034C124.738 7.38909 124.694 7.39618 124.651 7.39112H124.581V7.53859L124.889 7.52745H125.123ZM90.4535 7.52745C90.565 7.52745 90.7041 7.52745 90.8736 7.52745C91.0427 7.52745 91.1576 7.53859 91.2191 7.53859C91.5075 7.55329 91.7925 7.46866 92.0289 7.29736C92.1257 7.22438 92.2034 7.12809 92.2564 7.01659C92.309 6.9056 92.335 6.78295 92.3316 6.65929C92.335 6.56908 92.3208 6.47837 92.2889 6.39424C92.2564 6.3096 92.2083 6.23308 92.1459 6.16922C91.9886 6.02833 91.795 5.93812 91.5886 5.91024C91.7449 5.83118 91.883 5.71817 91.9935 5.5788C92.0766 5.46122 92.1198 5.3183 92.1164 5.17285C92.1193 5.06946 92.0982 4.96709 92.055 4.87434C92.0112 4.7816 91.9459 4.70101 91.8653 4.6402C91.6648 4.50032 91.425 4.43292 91.1837 4.44863L90.9051 4.45826C90.7635 4.45826 90.6432 4.45826 90.5463 4.45826H90.2844C90.1989 4.45826 90.1119 4.45826 90.0225 4.44254V4.59408H90.0486C90.1336 4.58445 90.2191 4.60979 90.2864 4.66503C90.3385 4.73903 90.3626 4.83075 90.3532 4.92198V5.30512C90.3532 5.42371 90.3532 5.54839 90.3532 5.67458V6.26298C90.3532 6.3395 90.3532 6.45455 90.3532 6.58074C90.3532 7.11947 90.2564 7.38757 90.0707 7.38757H90.0299H90.0024V7.53302L90.2771 7.51984L90.4535 7.52745ZM90.7321 5.37557C90.7321 5.12115 90.7321 4.89664 90.7434 4.70507C90.8142 4.69392 90.8771 4.68429 90.9291 4.67821C90.9812 4.67263 91.0348 4.67821 91.0776 4.67821C91.2471 4.66807 91.4142 4.72483 91.5439 4.83734C91.6009 4.89258 91.6461 4.95999 91.6751 5.03449C91.7041 5.10949 91.7174 5.19008 91.7129 5.27066C91.7139 5.37911 91.6874 5.48605 91.6348 5.58082C91.5783 5.68269 91.4992 5.76986 91.4048 5.83574C91.3434 5.83574 91.2766 5.84689 91.2097 5.85095H90.9886H90.8215H90.7193C90.7193 5.7876 90.7228 5.63251 90.7267 5.37759L90.7321 5.37557ZM90.7321 6.30909C90.7321 6.19 90.7321 6.10181 90.7321 6.04049H90.9178H91.0608C91.2879 6.02275 91.5144 6.0785 91.7095 6.19963C91.7807 6.25639 91.8377 6.33038 91.8746 6.41553C91.9119 6.50016 91.9277 6.59341 91.9213 6.68616C91.9262 6.77535 91.9119 6.86506 91.88 6.94817C91.8476 7.03078 91.7984 7.10579 91.7355 7.16711C91.5842 7.29077 91.3945 7.35209 91.2024 7.33942C91.1257 7.33942 91.0495 7.33385 90.9739 7.32219C90.8933 7.30901 90.8142 7.29077 90.736 7.26695C90.736 7.09413 90.736 6.95831 90.736 6.85695C90.736 6.75508 90.736 6.66538 90.736 6.57314C90.7134 6.51384 90.7154 6.42769 90.7174 6.31062L90.7321 6.30909ZM103.238 7.10781C103.375 7.27151 103.545 7.40226 103.736 7.49095C103.93 7.57812 104.14 7.62222 104.353 7.61918C104.536 7.61766 104.717 7.58218 104.887 7.51376C105.06 7.44788 105.219 7.34905 105.356 7.22286C105.522 7.07031 105.654 6.88279 105.742 6.67298C105.833 6.45911 105.879 6.22801 105.878 5.99488C105.879 5.76631 105.835 5.54028 105.749 5.32995C105.664 5.12166 105.538 4.93414 105.378 4.78007C105.248 4.65185 105.094 4.55252 104.925 4.48867C104.742 4.42329 104.55 4.39136 104.356 4.39491C104.166 4.3944 103.976 4.4319 103.799 4.50589C103.611 4.58344 103.441 4.69797 103.296 4.84393C103.152 4.98938 103.037 5.16322 102.958 5.35479C102.874 5.55852 102.832 5.77746 102.833 5.99842C102.83 6.40843 102.973 6.80576 103.236 7.11339L103.238 7.10781ZM103.574 4.97722C103.663 4.8637 103.777 4.77298 103.906 4.71267C104.035 4.65287 104.176 4.62449 104.317 4.63057C104.471 4.62854 104.623 4.66402 104.76 4.73396C104.898 4.8044 105.017 4.90728 105.109 5.03499C105.327 5.32995 105.438 5.69485 105.423 6.06532C105.442 6.40843 105.343 6.74799 105.144 7.02369C105.056 7.13924 104.943 7.23147 104.814 7.2928C104.684 7.35463 104.543 7.38351 104.401 7.37794C104.247 7.37946 104.095 7.34246 103.958 7.271C103.82 7.19904 103.702 7.09464 103.611 6.96591C103.393 6.66183 103.282 6.28882 103.297 5.91024C103.281 5.57474 103.381 5.2438 103.58 4.97722H103.574ZM128.095 7.58117C128.169 7.58066 128.241 7.57255 128.313 7.55633C128.378 7.5386 128.441 7.51072 128.498 7.47373C128.563 7.43267 128.621 7.38301 128.673 7.32625C128.734 7.25732 128.788 7.18231 128.835 7.10224L129.338 6.28781C129.431 6.29946 129.524 6.30504 129.615 6.30707C129.706 6.30909 129.801 6.30707 129.873 6.30707V6.90661C129.875 6.99429 129.87 7.08197 129.859 7.16914C129.853 7.22235 129.836 7.27354 129.808 7.31864C129.785 7.3526 129.749 7.37642 129.71 7.38554C129.658 7.3977 129.605 7.40277 129.552 7.40075H129.496V7.54265L129.801 7.53099H130.054H130.291L130.598 7.54265V7.39517H130.525C130.48 7.39619 130.434 7.38909 130.392 7.37389C130.354 7.35868 130.323 7.32929 130.306 7.29178C130.28 7.23756 130.264 7.17927 130.259 7.11947C130.25 7.02115 130.245 6.92283 130.247 6.82401V6.76876C130.247 6.7419 130.247 6.71302 130.247 6.68058V6.57314C130.247 6.53513 130.247 6.49864 130.247 6.46012V5.57119C130.247 5.51545 130.247 5.4602 130.247 5.40446V5.2514C130.247 5.20528 130.247 5.17487 130.247 5.15764C130.245 5.06186 130.25 4.96658 130.259 4.87181C130.265 4.81302 130.282 4.75575 130.308 4.70355C130.326 4.66706 130.356 4.63918 130.393 4.62499C130.436 4.6103 130.481 4.60421 130.525 4.60573H130.581L130.57 4.45065C130.475 4.45065 130.384 4.46181 130.293 4.46586H130.026C129.985 4.46586 129.936 4.46586 129.879 4.46586H129.71H129.552H129.44C129.277 4.46181 129.114 4.48867 128.959 4.54441C128.832 4.58901 128.715 4.65895 128.614 4.74916C128.527 4.8262 128.458 4.92096 128.41 5.0279C128.363 5.13433 128.338 5.25039 128.337 5.36797C128.335 5.47389 128.35 5.57981 128.381 5.68066C128.41 5.76124 128.451 5.83676 128.502 5.90467C128.554 5.97309 128.617 6.03137 128.688 6.07698C128.76 6.12563 128.837 6.16415 128.918 6.19202L128.547 6.77839C128.463 6.90864 128.391 7.01558 128.328 7.10224C128.275 7.17319 128.218 7.2406 128.157 7.30344C128.115 7.3455 128.065 7.37946 128.012 7.4048C127.967 7.42254 127.92 7.43115 127.872 7.43166H127.852V7.55633L127.98 7.57154L128.095 7.58117ZM128.874 5.80888C128.831 5.75111 128.8 5.68624 128.779 5.61731C128.755 5.52811 128.743 5.43588 128.744 5.34313C128.743 5.24937 128.763 5.15663 128.802 5.07098C128.839 4.99141 128.892 4.92046 128.959 4.8642C129.032 4.8044 129.116 4.7593 129.206 4.73193C129.309 4.69848 129.416 4.68226 129.524 4.68429C129.58 4.68125 129.635 4.68125 129.691 4.68429L129.853 4.7071C129.853 4.77247 129.853 4.8338 129.853 4.89867C129.853 4.96404 129.853 5.01928 129.853 5.09024V5.28181C129.853 5.34719 129.853 5.41966 129.853 5.49821V6.05975L129.741 6.07698C129.689 6.08357 129.637 6.08661 129.585 6.08661C129.516 6.08661 129.448 6.08661 129.381 6.07698C129.314 6.07039 129.248 6.0562 129.184 6.03492C129.122 6.01566 129.062 5.98778 129.007 5.95231C128.959 5.91176 128.917 5.86362 128.885 5.80888H128.874ZM116.073 7.52339H116.377C116.481 7.52339 116.583 7.52339 116.685 7.53505V7.39314H116.676H116.615C116.568 7.39973 116.519 7.39517 116.473 7.38098C116.428 7.36628 116.385 7.34196 116.349 7.30902C116.291 7.17826 116.269 7.03382 116.285 6.89141V6.23967L116.506 6.26095H116.652C116.955 6.28072 117.256 6.1905 117.501 6.00603C117.601 5.92038 117.681 5.81142 117.733 5.68826C117.785 5.56562 117.809 5.43132 117.802 5.29701C117.805 5.17944 117.783 5.06186 117.735 4.95442C117.687 4.84748 117.616 4.75271 117.527 4.67821C117.318 4.51299 117.058 4.42937 116.795 4.44254L116.516 4.45218C116.373 4.45218 116.251 4.45218 116.145 4.45218H115.866C115.771 4.45218 115.681 4.45217 115.582 4.43697V4.5885H115.599C115.684 4.57888 115.769 4.60371 115.837 4.65743C115.888 4.73142 115.911 4.82214 115.902 4.91235V6.25335C115.902 6.32025 115.902 6.4064 115.902 6.51587C115.902 6.62483 115.902 6.69781 115.902 6.73785C115.914 6.91472 115.894 7.0921 115.842 7.26087C115.819 7.30091 115.785 7.33334 115.744 7.35412C115.704 7.3749 115.658 7.38301 115.614 7.37794H115.566H115.532V7.51782L115.854 7.50616L116.073 7.52339ZM116.285 5.29904C116.285 5.10747 116.285 4.90475 116.285 4.71115C116.34 4.71115 116.394 4.69392 116.452 4.68784C116.509 4.68226 116.567 4.68784 116.637 4.68784C116.836 4.67922 117.03 4.74764 117.182 4.87941C117.248 4.94276 117.301 5.01979 117.335 5.10595C117.37 5.1916 117.386 5.28485 117.382 5.37759C117.389 5.47591 117.374 5.57474 117.339 5.66647C117.304 5.7582 117.249 5.8403 117.178 5.90669C117.006 6.03846 116.795 6.10232 116.582 6.08661H116.44L116.283 6.06735C116.294 5.74756 116.294 5.49669 116.295 5.29904H116.285ZM106.768 7.52339H107.074C107.178 7.52339 107.28 7.52339 107.382 7.53505V7.39314H107.371H107.325C107.278 7.39973 107.229 7.39517 107.184 7.38098C107.139 7.36628 107.097 7.34196 107.061 7.30902C107.002 7.17877 106.979 7.03433 106.994 6.89141V6.23967L107.215 6.26095H107.364C107.666 6.28021 107.966 6.1905 108.211 6.00603C108.311 5.92038 108.391 5.81142 108.443 5.68826C108.495 5.56562 108.519 5.43132 108.512 5.29701C108.515 5.17944 108.493 5.06236 108.446 4.95492C108.398 4.84748 108.327 4.75322 108.239 4.67821C108.029 4.51249 107.769 4.42937 107.505 4.44254L107.228 4.45218C107.085 4.45218 106.961 4.45218 106.857 4.45218H106.576C106.483 4.45218 106.391 4.45217 106.294 4.43697V4.5885H106.311C106.395 4.57888 106.48 4.60371 106.546 4.65743C106.598 4.73142 106.621 4.82214 106.612 4.91235V6.25335C106.612 6.32025 106.612 6.4064 106.612 6.51587C106.612 6.62483 106.612 6.69781 106.612 6.73785C106.625 6.91472 106.605 7.09261 106.552 7.26087C106.53 7.30141 106.496 7.33385 106.456 7.35463C106.416 7.37541 106.37 7.38351 106.325 7.37794H106.275H106.244V7.51782L106.565 7.50616L106.768 7.52339ZM106.979 5.29904C106.979 5.10747 106.979 4.90475 106.989 4.71115C107.043 4.71115 107.098 4.69392 107.154 4.68784C107.21 4.68226 107.271 4.68784 107.34 4.68784C107.538 4.67922 107.732 4.74764 107.884 4.87941C107.951 4.94276 108.003 5.01979 108.038 5.10595C108.072 5.1916 108.088 5.28485 108.084 5.37759C108.091 5.47591 108.076 5.57474 108.041 5.66596C108.005 5.75769 107.95 5.8398 107.88 5.90669C107.709 6.03897 107.496 6.10283 107.282 6.08661H107.143L106.983 6.06735C106.985 5.74756 106.987 5.49669 106.987 5.29904H106.979ZM112.552 7.10781C112.688 7.27202 112.857 7.40277 113.048 7.49095C113.243 7.57812 113.453 7.62222 113.665 7.61918C113.848 7.61766 114.029 7.58218 114.2 7.51376C114.372 7.44839 114.532 7.34956 114.668 7.22286C114.835 7.07082 114.967 6.88279 115.056 6.67298C115.146 6.45911 115.193 6.22801 115.192 5.99488C115.194 5.76631 115.149 5.53977 115.062 5.32995C114.977 5.12166 114.851 4.93414 114.69 4.78007C114.56 4.65185 114.405 4.55252 114.235 4.48867C114.056 4.4243 113.868 4.39237 113.678 4.39491C113.487 4.39389 113.298 4.4319 113.121 4.50589C112.942 4.57837 112.779 4.68581 112.64 4.82214C112.484 4.97165 112.361 5.15308 112.278 5.35479C112.195 5.55852 112.153 5.77746 112.153 5.99842C112.152 6.20368 112.188 6.40742 112.257 6.6C112.324 6.7865 112.425 6.95881 112.552 7.10781ZM112.898 4.97722C112.987 4.86319 113.1 4.77248 113.229 4.71217C113.358 4.65186 113.499 4.62398 113.641 4.63057C113.795 4.62905 113.946 4.66453 114.084 4.73497C114.221 4.80491 114.341 4.90779 114.432 5.03499C114.65 5.33046 114.761 5.69485 114.746 6.06532C114.766 6.40894 114.666 6.74849 114.466 7.02369C114.378 7.13924 114.265 7.23147 114.136 7.2933C114.006 7.35463 113.865 7.38402 113.723 7.37794C113.569 7.37946 113.417 7.34246 113.28 7.271C113.143 7.19904 113.025 7.09464 112.935 6.96591C112.715 6.66183 112.604 6.28933 112.619 5.91024C112.6 5.57474 112.699 5.2438 112.898 4.97722ZM109.311 7.52339H109.563L109.866 7.53505V7.38554H109.794C109.75 7.39213 109.705 7.38605 109.663 7.36831C109.623 7.35108 109.587 7.3227 109.56 7.2857C109.504 7.12099 109.484 6.94614 109.498 6.77231V6.29541V4.71318C109.643 4.71318 109.777 4.71318 109.903 4.70355H110.275H110.646C110.774 4.70355 110.91 4.70355 111.053 4.71318V6.29541V6.82046C111.067 6.97909 111.047 7.13873 110.994 7.28773C110.967 7.3232 110.932 7.35108 110.891 7.3678C110.851 7.38504 110.807 7.39111 110.764 7.38554H110.689V7.53505L110.994 7.52339H111.246H111.484L111.791 7.53505V7.38757H111.718C111.676 7.39213 111.632 7.38453 111.593 7.36578C111.554 7.34652 111.521 7.31712 111.497 7.28013C111.447 7.13163 111.427 6.97351 111.44 6.81641V6.72062C111.44 6.68058 111.44 6.62889 111.44 6.56959C111.44 6.50979 111.44 6.45049 111.44 6.40082V5.56156C111.44 5.5119 111.44 5.45615 111.44 5.39685C111.44 5.33756 111.44 5.28586 111.44 5.2438V5.14953C111.427 4.99851 111.447 4.84596 111.497 4.70355C111.521 4.66655 111.554 4.63716 111.593 4.6184C111.632 4.59965 111.676 4.59256 111.718 4.59813H111.774V4.44863C111.449 4.44863 111.167 4.45978 110.925 4.4618H110.585H109.627H109.234L108.779 4.45218V4.60168H108.835C108.879 4.59712 108.922 4.60472 108.962 4.62398C109.001 4.64324 109.034 4.67314 109.058 4.71115C109.111 4.86623 109.132 5.03145 109.119 5.19565V5.28181C109.119 5.32033 109.119 5.36797 109.119 5.42371C109.119 5.47946 109.119 5.52913 109.119 5.57525V6.40488C109.119 6.45455 109.119 6.50979 109.119 6.57314C109.119 6.63649 109.119 6.68413 109.119 6.72467V6.82046C109.132 6.97757 109.111 7.13569 109.06 7.28418C109.036 7.32118 109.003 7.35108 108.964 7.37034C108.925 7.38909 108.882 7.39618 108.839 7.39112H108.768V7.53859L109.077 7.52745L109.311 7.52339ZM118.612 7.35108C118.592 7.33283 118.576 7.30952 118.567 7.28317C118.557 7.25732 118.553 7.22945 118.556 7.20157C118.564 7.11491 118.583 7.03027 118.612 6.94868C118.647 6.83009 118.714 6.64206 118.815 6.38359H119.077H119.346H119.669H119.886L120.091 7.04446C120.102 7.07791 120.112 7.11187 120.118 7.14633C120.121 7.17167 120.121 7.19701 120.118 7.22286C120.122 7.24718 120.118 7.27253 120.109 7.29533C120.099 7.31814 120.084 7.33841 120.065 7.35311C120.001 7.38351 119.932 7.39568 119.862 7.3896H119.821V7.53708L120.118 7.52542H120.377H120.603L120.903 7.53708V7.3896H120.86C120.799 7.39264 120.738 7.37591 120.687 7.34145C120.622 7.26898 120.572 7.18282 120.542 7.08855C120.449 6.85087 120.321 6.49611 120.158 6.02326C119.996 5.55041 119.823 5.02891 119.643 4.45623H119.283C119.062 5.06439 118.852 5.62086 118.653 6.12665C118.454 6.63244 118.315 6.96996 118.237 7.13822C118.204 7.21475 118.152 7.28114 118.086 7.32979C118.014 7.37135 117.933 7.39264 117.851 7.39112V7.53708L118.121 7.52542H118.332H118.57L118.856 7.53708V7.3896H118.798C118.731 7.39669 118.663 7.38351 118.603 7.35108H118.612ZM119.383 4.86066L119.812 6.15199H119.721H119.349H119.027H118.911L119.383 4.86066ZM43.7388 7.3896C43.6963 7.39365 43.6533 7.38605 43.6147 7.3673C43.5761 7.34855 43.5431 7.31915 43.5196 7.28216C43.4684 7.13417 43.4482 6.97706 43.4602 6.82046V6.72264C43.4602 6.68261 43.4602 6.63244 43.4602 6.57111C43.4602 6.50979 43.4602 6.45455 43.4602 6.40488V5.56562C43.4602 5.51544 43.4602 5.4602 43.4602 5.40091C43.4602 5.3411 43.4602 5.28941 43.4602 5.24735V5.15359C43.4478 5.00205 43.4681 4.84951 43.5196 4.7071C43.543 4.6701 43.5759 4.64071 43.6146 4.62195C43.6534 4.60371 43.6964 4.59661 43.7388 4.60168H43.7927V4.45065C43.6924 4.45065 43.6069 4.4618 43.5085 4.46383C43.41 4.46586 43.3394 4.46383 43.2651 4.46383C43.1908 4.46383 43.0886 4.46383 42.9976 4.46383C42.9066 4.46383 42.8118 4.46383 42.7246 4.45065V4.60168H42.7803C42.8238 4.59611 42.868 4.60219 42.9085 4.61942C42.9489 4.63716 42.9841 4.66554 43.0106 4.70152C43.0533 4.78058 43.0751 4.86978 43.0738 4.95999C42.8007 5.24532 42.5165 5.5347 42.2471 5.80685C41.9778 6.07901 41.6898 6.36434 41.4075 6.63852V5.19565C41.3914 5.02739 41.4117 4.85711 41.4669 4.69747C41.4944 4.6625 41.5303 4.63513 41.5709 4.6184C41.6115 4.60168 41.6557 4.59611 41.6991 4.60168H41.7493V4.45065C41.6564 4.45065 41.5635 4.4618 41.4743 4.46383C41.3852 4.46586 41.2886 4.46383 41.2142 4.46383C41.1399 4.46383 41.0564 4.46383 40.9672 4.46383C40.878 4.46383 40.7814 4.46383 40.6811 4.45065V4.60168H40.7368C40.7801 4.59712 40.8239 4.60472 40.8632 4.62398C40.9026 4.64324 40.936 4.67314 40.9597 4.71115C41.0131 4.86623 41.034 5.03145 41.0211 5.19565V5.28181C41.0211 5.32033 41.0211 5.36797 41.0211 5.42371C41.0211 5.47946 41.0211 5.52913 41.0211 5.57525V6.40488C41.0211 6.45455 41.0211 6.50979 41.0211 6.57111C41.0211 6.63244 41.0211 6.68261 41.0211 6.72264V6.82046C41.0331 6.97706 41.0128 7.13417 40.9616 7.28216C40.9381 7.31966 40.9049 7.34905 40.8659 7.36831C40.8268 7.38706 40.7834 7.39466 40.7406 7.3896H40.67V7.53708L40.9783 7.52542H41.2142H41.4669L41.7697 7.53708V7.38757H41.6972C41.6517 7.39314 41.6055 7.38554 41.564 7.36527C41.5226 7.345 41.4876 7.31256 41.4632 7.27252C41.4196 7.18383 41.3985 7.08501 41.4019 6.98517C41.675 6.69984 41.9592 6.41045 42.2285 6.1383C42.4979 5.86615 42.7858 5.58285 43.0682 5.30867V6.82248C43.0822 6.98111 43.0613 7.14076 43.0069 7.28976C42.98 7.32523 42.9446 7.3526 42.9042 7.36983C42.8638 7.38706 42.8199 7.39314 42.7766 7.38757H42.7041V7.53708L43.0069 7.52542H43.2614H43.4992L43.8057 7.53708V7.3896H43.7314H43.7388ZM31.4652 7.51782H31.703L31.9891 7.52947V7.38199H31.9222C31.8577 7.38554 31.7935 7.37084 31.7365 7.33942C31.717 7.32067 31.702 7.29736 31.6926 7.27151C31.6833 7.24566 31.6798 7.21779 31.6826 7.18992C31.6902 7.10376 31.7083 7.01913 31.7365 6.93702C31.7736 6.81843 31.8405 6.63091 31.9408 6.37194H32.2027H32.4609H32.7823H33.0015L33.204 7.05409C33.2156 7.08703 33.2249 7.12099 33.2319 7.15545C33.2344 7.1813 33.2344 7.20664 33.2319 7.23249C33.2346 7.25682 33.231 7.28215 33.2216 7.30496C33.2121 7.32777 33.1971 7.34753 33.178 7.36273C33.1147 7.39264 33.0449 7.40531 32.9755 7.39922H32.9347V7.5467L33.2319 7.53505H33.4901H33.7167L34.0158 7.5467V7.39922H33.9842C33.9232 7.40226 33.8626 7.38554 33.8115 7.35108C33.7462 7.2786 33.6968 7.19245 33.6666 7.09819C33.5737 6.8605 33.4455 6.50573 33.282 6.03289C33.1204 5.55954 32.9477 5.03855 32.7656 4.46586H32.4052C32.186 5.07352 31.9767 5.63049 31.7773 6.13628C31.5779 6.64206 31.4392 6.97959 31.3612 7.14785C31.3283 7.22489 31.2756 7.29128 31.2089 7.33942C31.1375 7.38098 31.0567 7.40227 30.9748 7.40075V7.5467L31.246 7.53505L31.4652 7.51782ZM32.5092 4.86066L32.9384 6.15199H32.8325H32.4609H32.1377H32.0225L32.5092 4.86066ZM34.8387 7.51782H35.0932L35.396 7.52947V7.37997H35.3236C35.2795 7.38605 35.2346 7.38047 35.1935 7.36273C35.1524 7.345 35.1165 7.31661 35.0896 7.28013C35.0341 7.11541 35.0132 6.94057 35.0282 6.76674V6.02529L36.0704 7.16154C36.1224 7.22033 36.1782 7.27506 36.2376 7.32625C36.2923 7.3749 36.3514 7.41747 36.414 7.45447C36.4753 7.49146 36.5408 7.51934 36.6091 7.53859C36.6822 7.55988 36.7579 7.57053 36.8339 7.56951H36.9193H36.9881H37.055L37.1311 7.55785V7.43724H37.1051C37.051 7.4342 36.9982 7.41848 36.9509 7.39112C36.8858 7.35361 36.8237 7.31053 36.7651 7.2629C36.6983 7.20715 36.6296 7.14633 36.5589 7.07133C36.4884 6.99683 36.4159 6.92942 36.3453 6.85289L35.4165 5.86412L36.4549 4.83937L36.4754 4.81656C36.5955 4.68632 36.7602 4.6103 36.9342 4.60371H36.9528V4.45623C36.858 4.45623 36.767 4.46789 36.6946 4.46941C36.6221 4.47143 36.5478 4.46941 36.4884 4.46941C36.4289 4.46941 36.3175 4.46941 36.2302 4.46941C36.1428 4.46941 36.0537 4.46941 35.9645 4.45623V4.60371H36.0165C36.0643 4.59915 36.1124 4.60776 36.1559 4.62854C36.1673 4.63615 36.1758 4.64729 36.1798 4.66098C36.1839 4.67415 36.1833 4.68834 36.1781 4.70152C36.1637 4.74511 36.1402 4.78514 36.1094 4.81809C36.0723 4.86623 36.0276 4.9159 35.9775 4.97367L35.0245 6.03289V5.20123C35.0092 5.03297 35.0289 4.86319 35.0821 4.70355C35.1102 4.66858 35.1463 4.64121 35.1872 4.62449C35.2282 4.60776 35.2725 4.60219 35.3162 4.60776H35.3719V4.45623C35.279 4.45623 35.1861 4.46789 35.097 4.46941C35.0078 4.47143 34.9205 4.46941 34.8351 4.46941C34.7496 4.46941 34.679 4.46941 34.5898 4.46941C34.5007 4.46941 34.4041 4.46941 34.3037 4.45623V4.60776H34.3595C34.4028 4.6027 34.4465 4.6103 34.4859 4.62956C34.5252 4.64881 34.5586 4.67922 34.5824 4.71672C34.6357 4.87231 34.6566 5.03702 34.6437 5.20123V5.28941C34.6437 5.3259 34.6437 5.37404 34.6437 5.42929C34.6437 5.48503 34.6437 5.5347 34.6437 5.58082V6.41046C34.6437 6.46012 34.6437 6.51587 34.6437 6.57719C34.6437 6.63852 34.6437 6.68818 34.6437 6.73025V6.82603C34.6557 6.98263 34.6355 7.14025 34.5843 7.28773C34.5606 7.32523 34.5274 7.35463 34.4884 7.37338C34.4494 7.39264 34.406 7.40024 34.3632 7.39517H34.2907V7.54265L34.601 7.53099L34.8387 7.51782ZM38.1008 7.51782H38.7993H39.1262H39.312L39.4978 7.52745L39.6464 7.53859C39.682 7.54164 39.7173 7.5467 39.7523 7.5543C39.8013 7.56697 39.8487 7.58522 39.8935 7.60955C39.9449 7.63945 39.9892 7.68101 40.0235 7.73067C40.0665 7.79605 40.0997 7.86751 40.122 7.94302C40.1532 8.05097 40.1719 8.16196 40.1777 8.27447H40.3319V8.03526C40.3319 8.01803 40.3319 7.99117 40.3319 7.95671C40.3319 7.92225 40.3319 7.87612 40.3319 7.8148C40.3319 7.75348 40.3319 7.67847 40.3412 7.5908C40.3505 7.50261 40.3541 7.39922 40.3634 7.26492L40.1554 7.28418C40.116 7.29026 40.0759 7.29026 40.0365 7.28418C40.0224 7.28114 40.0093 7.27506 39.9983 7.26543C39.9873 7.25631 39.9787 7.24414 39.9734 7.23046C39.9555 7.1889 39.9461 7.1438 39.9455 7.09819C39.9455 7.03889 39.9455 6.96034 39.9455 6.8605V6.7343C39.9455 6.68616 39.9455 6.63244 39.9455 6.57111C39.9455 6.50979 39.9455 6.45455 39.9455 6.40488V5.56562C39.9455 5.51544 39.9455 5.4602 39.9455 5.40091C39.9455 5.3411 39.9455 5.28941 39.9455 5.24735V5.15359C39.9329 5.00205 39.9525 4.85001 40.0031 4.7071C40.0265 4.67061 40.0595 4.64121 40.0982 4.62246C40.1369 4.60371 40.1798 4.59661 40.2223 4.60168H40.2631V4.45065C40.1628 4.45065 40.0774 4.4618 39.9808 4.46383C39.8842 4.46586 39.8117 4.46383 39.7356 4.46383C39.6594 4.46383 39.5591 4.46383 39.4699 4.46383C39.3807 4.46383 39.2842 4.46383 39.195 4.45065V4.60168H39.2526C39.2961 4.59661 39.3401 4.6027 39.3805 4.62043C39.4209 4.63767 39.4562 4.66554 39.4829 4.70152C39.5368 4.87181 39.557 5.05172 39.5423 5.23011V5.68421V7.26695C39.2637 7.26695 39.0129 7.28013 38.79 7.28013H38.4036H38.0061L37.9949 5.69789V5.20934C37.9799 5.04057 38.0002 4.87079 38.0544 4.71115C38.082 4.67567 38.1177 4.64881 38.1584 4.63209C38.1991 4.61536 38.2432 4.60928 38.2866 4.61537H38.3423V4.46383C38.2494 4.46383 38.1565 4.47549 38.0674 4.47751C37.9782 4.47903 37.8909 4.47751 37.8073 4.47751C37.7237 4.47751 37.6494 4.47751 37.5602 4.47751C37.4711 4.47751 37.3745 4.47751 37.2741 4.46383V4.61537H37.3299C37.3732 4.6103 37.4169 4.6179 37.4563 4.63716C37.4957 4.65642 37.529 4.68682 37.5528 4.72433C37.606 4.8789 37.6269 5.04361 37.6141 5.20731V5.29549C37.6141 5.3335 37.6141 5.37962 37.6141 5.43689C37.6141 5.49467 37.6141 5.54079 37.6141 5.5864V6.41603C37.6141 6.46621 37.6141 6.52144 37.6141 6.58277C37.6141 6.64409 37.6141 6.69376 37.6141 6.73633V6.83212C37.6264 6.9877 37.6061 7.14481 37.5547 7.29178C37.5315 7.32929 37.4985 7.35969 37.4594 7.37895C37.4203 7.39821 37.3767 7.40582 37.3336 7.40075H37.263V7.55025H37.7107L38.1008 7.51782ZM100.86 7.38554C100.816 7.39213 100.771 7.38605 100.73 7.36831C100.689 7.35108 100.653 7.3227 100.626 7.2857C100.57 7.12099 100.55 6.94614 100.565 6.77231V6.03086L101.607 7.16711C101.66 7.22488 101.716 7.28013 101.774 7.33182C101.829 7.38047 101.888 7.42355 101.951 7.46055C102.012 7.49754 102.079 7.52593 102.147 7.54468C102.221 7.56596 102.296 7.5761 102.372 7.57508H102.456H102.527H102.592L102.67 7.56394V7.43724H102.649C102.595 7.4347 102.542 7.41899 102.495 7.39112C102.43 7.35361 102.368 7.31053 102.309 7.2629C102.244 7.20715 102.175 7.14633 102.103 7.07133C102.03 6.99683 101.962 6.92942 101.889 6.85289L100.961 5.86412L101.999 4.83937L102.02 4.81656C102.139 4.68632 102.304 4.6103 102.478 4.60371H102.497V4.45623C102.404 4.45623 102.311 4.46789 102.24 4.46941C102.17 4.47143 102.092 4.46941 102.032 4.46941C101.973 4.46941 101.863 4.46941 101.774 4.46941C101.685 4.46941 101.597 4.46941 101.509 4.45623V4.60371H101.561C101.608 4.59915 101.656 4.60776 101.7 4.62854C101.712 4.63564 101.721 4.64679 101.725 4.66047C101.73 4.67365 101.729 4.68834 101.724 4.70152C101.708 4.74409 101.685 4.78413 101.655 4.81809C101.618 4.86623 101.573 4.9159 101.521 4.97367L100.568 6.03289V5.20123C100.553 5.03297 100.574 4.86319 100.628 4.70355C100.655 4.66858 100.691 4.64121 100.732 4.62449C100.773 4.60776 100.817 4.60168 100.86 4.60776H100.916V4.45623C100.823 4.45623 100.73 4.46789 100.643 4.46941C100.556 4.47143 100.466 4.46941 100.381 4.46941C100.295 4.46941 100.223 4.46941 100.134 4.46941C100.045 4.46941 99.9478 4.46941 99.8496 4.45623V4.60776H99.8943C99.9375 4.6027 99.9813 4.6103 100.021 4.62956C100.06 4.64881 100.093 4.67871 100.117 4.71672C100.17 4.87231 100.191 5.03702 100.178 5.20123V5.28941C100.178 5.3259 100.178 5.37404 100.178 5.42929C100.178 5.48503 100.178 5.5347 100.178 5.58082V6.41046C100.178 6.46012 100.178 6.51587 100.178 6.57719C100.178 6.63852 100.178 6.68818 100.178 6.73025V6.82603C100.191 6.98263 100.171 7.13974 100.121 7.28773C100.097 7.32523 100.063 7.35463 100.024 7.37338C99.9847 7.39264 99.941 7.39973 99.8977 7.39517H99.8275V7.54265L100.136 7.53099H100.371H100.624L100.929 7.54265V7.39314H100.854L100.86 7.38554ZM44.5729 7.09819C44.7098 7.26188 44.8797 7.39264 45.0708 7.48133C45.2652 7.5685 45.4754 7.61259 45.6875 7.60955C45.8706 7.60803 46.0518 7.57255 46.2225 7.50413C46.3947 7.43774 46.5534 7.33942 46.6907 7.21323C46.8551 7.06271 46.9862 6.87823 47.0752 6.67095C47.1662 6.45708 47.2123 6.22598 47.2108 5.99285C47.212 5.76429 47.1684 5.53825 47.0826 5.32793C46.9976 5.11963 46.871 4.93262 46.7111 4.77805C46.5812 4.64983 46.4268 4.5505 46.2579 4.48664C46.0752 4.42126 45.8828 4.38933 45.6894 4.39288C45.4984 4.39237 45.3091 4.42988 45.1321 4.50387C44.9445 4.58141 44.7736 4.69595 44.6291 4.84191C44.4847 4.98736 44.3697 5.16119 44.2906 5.35276C44.2072 5.5565 44.1648 5.77543 44.1661 5.9964C44.1607 6.40691 44.3045 6.80475 44.5692 7.11136L44.5729 7.09819ZM44.9073 4.97722C44.9963 4.8637 45.1098 4.77298 45.2389 4.71267C45.3679 4.65287 45.5089 4.62449 45.6504 4.63057C45.8038 4.62905 45.9555 4.66453 46.0931 4.73497C46.2306 4.80491 46.3501 4.90779 46.4417 5.03499C46.66 5.32995 46.771 5.69485 46.7557 6.06532C46.7746 6.40843 46.6759 6.74799 46.477 7.02369C46.3891 7.13873 46.2759 7.23097 46.1468 7.2928C46.0177 7.35463 45.8762 7.38351 45.734 7.37794C45.5801 7.37946 45.4281 7.34246 45.2907 7.271C45.1533 7.19904 45.0346 7.09464 44.9445 6.96591C44.7242 6.66031 44.6133 6.28528 44.6305 5.90467C44.6134 5.5717 44.7115 5.24278 44.9073 4.97722ZM89.1031 7.21677C89.2692 7.06625 89.4014 6.87975 89.4913 6.67095C89.5822 6.45708 89.6284 6.22598 89.6269 5.99285C89.6255 5.76479 89.5793 5.53926 89.4913 5.32995C89.4063 5.12166 89.2795 4.93414 89.1198 4.78007C88.9896 4.65185 88.8353 4.55252 88.6662 4.48867C88.4839 4.42329 88.2913 4.39136 88.0982 4.39491C87.907 4.3944 87.7178 4.4319 87.5409 4.50589C87.165 4.66199 86.8643 4.96506 86.7046 5.34921C86.6215 5.55244 86.5793 5.77189 86.5802 5.99285C86.5773 6.40286 86.7208 6.79968 86.9832 7.10781C87.1203 7.27151 87.2903 7.40226 87.4815 7.49095C87.6756 7.57812 87.8859 7.62222 88.0982 7.61918C88.281 7.61766 88.4623 7.58218 88.6328 7.51376C88.8063 7.44636 88.966 7.3455 89.1031 7.21677ZM87.3586 6.95628C87.1395 6.6522 87.0289 6.27919 87.0446 5.90061C87.0284 5.56916 87.1267 5.24177 87.3218 4.97722C87.4107 4.8637 87.5242 4.77298 87.653 4.71267C87.7822 4.65287 87.9232 4.62449 88.0648 4.63057C88.2181 4.62854 88.3699 4.66402 88.5075 4.73396C88.6451 4.8044 88.7645 4.90728 88.8559 5.03499C89.0741 5.32995 89.1852 5.69485 89.1699 6.06532C89.1886 6.40843 89.0903 6.74799 88.8913 7.02369C88.8033 7.13924 88.6903 7.23147 88.5611 7.2933C88.4318 7.35463 88.2903 7.38402 88.1483 7.37794C87.9935 7.37794 87.8412 7.33993 87.7036 7.26644C87.566 7.19296 87.4481 7.08653 87.3586 6.95628ZM74.7005 7.39112H74.6299C74.5859 7.3972 74.541 7.39162 74.5 7.37389C74.4588 7.35665 74.423 7.32827 74.3959 7.29178C74.3403 7.12707 74.3194 6.95172 74.3346 6.77839V6.09624H74.7767H75.1371C75.3024 6.09624 75.5644 6.09624 75.9229 6.09624H75.9508V6.83212C75.9643 6.99024 75.944 7.14988 75.8913 7.29938C75.8641 7.33486 75.8284 7.36274 75.7877 7.37997C75.747 7.39669 75.7027 7.40277 75.6591 7.3972H75.5866V7.5467L75.8894 7.53505H76.1439H76.3817L76.6883 7.5467V7.39922H76.6139C76.5713 7.40378 76.5283 7.39669 76.4895 7.37743C76.4508 7.35868 76.418 7.32878 76.3948 7.29178C76.3437 7.1438 76.3234 6.98669 76.3353 6.83009C76.3353 6.78397 76.3353 6.70136 76.3353 6.57922C76.3353 6.45658 76.3353 6.35876 76.3353 6.28224V5.70702C76.3353 5.62897 76.3353 5.53116 76.3353 5.41054C76.3353 5.28941 76.3353 5.20731 76.3353 5.16322C76.3233 5.01169 76.3436 4.85914 76.3948 4.71672C76.418 4.67973 76.451 4.65033 76.4897 4.63158C76.5285 4.61283 76.5715 4.60624 76.6139 4.61131H76.6734V4.45978C76.5731 4.45978 76.4876 4.47143 76.391 4.47346C76.2944 4.47549 76.2182 4.47346 76.1458 4.47346C76.0734 4.47346 75.9712 4.47346 75.8802 4.47346C75.7891 4.47346 75.6944 4.47346 75.6052 4.45978V4.61131H75.6609C75.7047 4.60573 75.7491 4.61232 75.7898 4.62956C75.8305 4.64679 75.8662 4.67517 75.8932 4.71115C75.9475 4.88143 75.9678 5.06135 75.9526 5.23975V5.83929H75.5328H74.6299H74.342V5.20528C74.3272 5.03601 74.3475 4.86573 74.4015 4.70507C74.4293 4.67061 74.4652 4.64375 74.5059 4.62753C74.5464 4.61131 74.5904 4.60573 74.6337 4.61131H74.6894V4.45978C74.5965 4.45978 74.5036 4.47143 74.4145 4.47346C74.3253 4.47549 74.238 4.47346 74.1544 4.47346C74.0708 4.47346 73.9965 4.47346 73.9073 4.47346C73.8181 4.47346 73.7216 4.47346 73.6212 4.45978V4.61131H73.677C73.7206 4.60624 73.7647 4.61384 73.8044 4.6331C73.8441 4.65236 73.8778 4.68277 73.9017 4.72078C73.9532 4.87637 73.9734 5.04108 73.9612 5.20528C73.9612 5.24532 73.9612 5.32033 73.9612 5.43132C73.9612 5.54231 73.9612 5.63454 73.9612 5.70702V6.28224C73.9612 6.35876 73.9612 6.4581 73.9612 6.57922C73.9612 6.69984 73.9612 6.78397 73.9612 6.83009C73.9731 6.98669 73.9528 7.1438 73.9017 7.29178C73.8782 7.32878 73.8451 7.35868 73.806 7.37794C73.7669 7.39669 73.7235 7.40429 73.6807 7.39922H73.6101V7.5467L73.9166 7.53505H74.1544H74.407L74.7098 7.5467L74.7005 7.39112ZM61.4219 6.38765L61.6263 7.05409C61.6375 7.09261 61.6467 7.12707 61.6523 7.15545C61.6548 7.1813 61.6548 7.20664 61.6523 7.23249C61.6552 7.25732 61.6515 7.28215 61.6417 7.30547C61.6319 7.32827 61.6163 7.34804 61.5966 7.36273C61.5334 7.39314 61.4635 7.40531 61.3941 7.39922H61.355V7.5467L61.6523 7.53505H61.9087H62.1372L62.4344 7.5467V7.39922H62.3935C62.3319 7.40226 62.2707 7.38554 62.2189 7.35108C62.1536 7.2786 62.1042 7.19245 62.074 7.09819C61.9811 6.8605 61.8535 6.50573 61.6913 6.03289C61.5278 5.55954 61.3551 5.03855 61.1749 4.46586H60.8145C60.5941 5.07352 60.3841 5.63049 60.1847 6.13628C59.9854 6.64206 59.8473 6.97959 59.7705 7.14785C59.7364 7.22438 59.6839 7.29026 59.6181 7.33942C59.5461 7.38098 59.4647 7.40227 59.3822 7.40075V7.5467L59.6553 7.53505H59.8633H60.1011L60.3872 7.5467V7.39922H60.3315C60.2639 7.4048 60.196 7.3901 60.1364 7.35665C60.1163 7.33841 60.1006 7.3151 60.091 7.28925C60.0813 7.2629 60.0777 7.23502 60.0807 7.20715C60.0883 7.12099 60.107 7.03585 60.1364 6.95476C60.1718 6.83566 60.2405 6.64815 60.3389 6.38917H60.6027H60.8832H61.2064L61.4219 6.38765ZM60.8832 6.16719H60.5618H60.4467L60.926 4.87586L61.355 6.16719H61.2548H60.8832ZM70.6973 7.52339H70.9518L71.2546 7.53505V7.38554H71.1821C71.1363 7.39162 71.0897 7.38402 71.048 7.36324C71.0062 7.34297 70.9709 7.31104 70.9462 7.2705C70.9041 7.1813 70.8837 7.08247 70.8868 6.98314C71.1592 6.6973 71.4348 6.41502 71.7134 6.13628C71.9902 5.85855 72.2707 5.58082 72.5531 5.30664V6.82046C72.5671 6.97909 72.5461 7.13873 72.4918 7.28773C72.4649 7.3232 72.4295 7.35108 72.3891 7.3678C72.3487 7.38504 72.3047 7.39111 72.2614 7.38554H72.1871V7.53505L72.4918 7.52339H72.7444H72.9822L73.2887 7.53505V7.38757H73.2163C73.1734 7.39213 73.1302 7.38453 73.0912 7.36578C73.0522 7.34652 73.0191 7.31712 72.9952 7.28013C72.9449 7.13214 72.9253 6.97503 72.9376 6.81843V6.72062C72.9376 6.68058 72.9376 6.63091 72.9376 6.56959C72.9376 6.50827 72.9376 6.45252 72.9376 6.40285V5.56359C72.9376 5.51393 72.9376 5.45818 72.9376 5.39888C72.9376 5.33958 72.9376 5.28789 72.9376 5.24532V5.15156C72.925 5.00053 72.9446 4.84799 72.9952 4.70507C73.0191 4.66858 73.0524 4.63919 73.0914 4.62043C73.1304 4.60219 73.1736 4.59509 73.2163 4.59966H73.272V4.44863C73.1717 4.44863 73.077 4.45978 72.9896 4.4618C72.9023 4.46383 72.8206 4.4618 72.7444 4.4618C72.6683 4.4618 72.568 4.4618 72.4788 4.4618C72.3896 4.4618 72.293 4.4618 72.2038 4.44863V4.59966H72.2614C72.3049 4.59408 72.3491 4.60016 72.3896 4.6179C72.43 4.63513 72.4653 4.66351 72.4918 4.69949C72.5336 4.77906 72.5553 4.86775 72.5549 4.95796C72.28 5.24431 72.0045 5.52659 71.7283 5.80483C71.4521 6.08357 71.1722 6.36079 70.8886 6.63649V5.19363C70.8733 5.02537 70.893 4.85559 70.9462 4.69544C70.974 4.66098 71.0098 4.63361 71.0504 4.61689C71.091 4.60016 71.135 4.59459 71.1784 4.59966H71.236V4.44863C71.1413 4.44863 71.0502 4.45978 70.9611 4.4618C70.8719 4.46383 70.7753 4.4618 70.6991 4.4618C70.623 4.4618 70.5412 4.4618 70.4521 4.4618C70.3629 4.4618 70.2663 4.4618 70.1679 4.44863V4.59966H70.2217C70.2653 4.59459 70.3095 4.60219 70.3492 4.62145C70.3889 4.64071 70.4226 4.67111 70.4465 4.70912C70.4997 4.8642 70.5207 5.02942 70.5078 5.19363V5.27978C70.5078 5.3183 70.5078 5.36644 70.5078 5.42168C70.5078 5.47743 70.5078 5.5271 70.5078 5.57322V6.40285C70.5078 6.45252 70.5078 6.50827 70.5078 6.56959C70.5078 6.63091 70.5078 6.68058 70.5078 6.72062V6.81843C70.5198 6.97503 70.4995 7.13214 70.4483 7.28013C70.4242 7.31712 70.3907 7.34703 70.3514 7.36578C70.3121 7.38504 70.2685 7.39213 70.2254 7.38757H70.1548V7.53505L70.4632 7.52339H70.6973ZM85.0903 7.6136C85.249 7.6131 85.4073 7.59485 85.5625 7.55988C85.7208 7.52238 85.8751 7.46866 86.023 7.39922C86.05 7.30192 86.082 7.20411 86.1178 7.10579C86.1547 7.01 86.196 6.91422 86.2402 6.82046L86.0992 6.74951C86.0215 6.93601 85.8923 7.09464 85.7277 7.20563C85.5016 7.33993 85.2377 7.38909 84.9802 7.345C84.7232 7.3004 84.4888 7.16508 84.3178 6.96236C84.0903 6.66639 83.9738 6.29541 83.9906 5.91785C83.9694 5.58133 84.0706 5.24887 84.2751 4.98482C84.3773 4.87231 84.5026 4.78464 84.6417 4.72788C84.7807 4.67061 84.9301 4.64628 85.0795 4.6554C85.3031 4.64476 85.5247 4.70507 85.7149 4.82771C85.793 4.88296 85.8594 4.95492 85.9085 5.03905C85.9576 5.12318 85.9881 5.21694 85.9989 5.31475L86.1512 5.28789C86.138 5.16879 86.1272 5.05375 86.1198 4.94479C86.1124 4.83532 86.1105 4.73193 86.1105 4.63057V4.56367C85.9483 4.51147 85.7832 4.47042 85.6161 4.44103C85.4677 4.41366 85.3173 4.39947 85.1665 4.39896C84.9517 4.38984 84.737 4.42481 84.535 4.50184C84.3335 4.57888 84.1483 4.69595 83.9906 4.84697C83.8402 4.99699 83.7222 5.17741 83.6441 5.37759C83.566 5.57778 83.5296 5.79267 83.5375 6.00806C83.5252 6.22243 83.5566 6.43681 83.6304 6.6375C83.7041 6.8382 83.8181 7.02064 83.965 7.17268C84.1119 7.32523 84.2878 7.44332 84.4824 7.52035C84.6765 7.59739 84.8844 7.63083 85.0923 7.61918L85.0903 7.6136ZM77.2752 7.52339H77.513L77.7991 7.53505V7.38757H77.7415C77.677 7.39162 77.6126 7.37743 77.5558 7.34551C77.5356 7.32675 77.52 7.30344 77.5103 7.27759C77.5006 7.25175 77.4971 7.22336 77.5001 7.196C77.5076 7.10933 77.5263 7.02419 77.5558 6.94311C77.5911 6.82401 77.6598 6.63649 77.7582 6.37802H78.0202H78.2895H78.6128H78.8301L79.0343 7.03889C79.0461 7.07183 79.0554 7.10579 79.0623 7.14025C79.0647 7.16559 79.0647 7.19143 79.0623 7.21677C79.0652 7.24161 79.0618 7.26695 79.052 7.28976C79.0421 7.31307 79.0264 7.33283 79.0068 7.34702C78.9434 7.37743 78.8735 7.3901 78.8041 7.38351H78.7651V7.53099L79.0623 7.51984H79.3188H79.5453L79.8446 7.53099V7.38351H79.8018C79.7404 7.38706 79.68 7.37034 79.6289 7.33587C79.5635 7.26289 79.5144 7.17674 79.4839 7.08298C79.391 6.84529 79.2628 6.49002 79.0996 6.01768C78.9379 5.54433 78.7651 5.02334 78.5849 4.45065H78.2245C78.0029 5.05831 77.7929 5.61529 77.5948 6.12107C77.3966 6.62686 77.2579 6.96388 77.1787 7.13265C77.1458 7.20917 77.0939 7.27506 77.0282 7.32422C76.9562 7.36578 76.8748 7.38706 76.7923 7.38554V7.53099L77.0635 7.51984L77.2752 7.52339ZM78.3193 4.86623L78.7502 6.15756H78.6574H78.2858H77.9626H77.8474L78.3193 4.86623ZM80.6505 7.52339H80.905L81.2077 7.53505V7.38554H81.1316C81.0878 7.39162 81.0431 7.38554 81.0018 7.3678C80.9611 7.35057 80.9247 7.32219 80.8977 7.2857C80.8421 7.12099 80.821 6.94614 80.8362 6.77231V6.09624H81.2785H81.6387C81.8043 6.09624 82.0662 6.09624 82.4264 6.09624H82.4525V6.83212C82.4662 6.99024 82.4461 7.14988 82.393 7.29938C82.3665 7.33486 82.3311 7.36274 82.2908 7.37997C82.25 7.39669 82.2063 7.40277 82.163 7.3972H82.0883V7.5467L82.391 7.53505H82.6456H82.8834L83.1901 7.5467V7.39922H83.1159C83.0731 7.40378 83.0303 7.39618 82.9915 7.37743C82.9527 7.35817 82.9198 7.32878 82.8967 7.29178C82.8466 7.1438 82.8269 6.98618 82.8392 6.83009C82.8392 6.78397 82.8392 6.70136 82.8392 6.57922C82.8392 6.45658 82.8392 6.35876 82.8392 6.28224V5.70702C82.8392 5.62897 82.8392 5.53116 82.8392 5.41054C82.8392 5.28941 82.8392 5.20731 82.8392 5.16322C82.8269 5.01169 82.8466 4.85964 82.8967 4.71672C82.9203 4.67973 82.9532 4.65084 82.9915 4.63209C83.0303 4.61334 83.0731 4.60624 83.1159 4.61131H83.1753V4.45978C83.0765 4.45978 82.9896 4.47143 82.8928 4.47346C82.7964 4.47549 82.7217 4.47346 82.6475 4.47346C82.5733 4.47346 82.4731 4.47346 82.3822 4.47346C82.2908 4.47346 82.1964 4.47346 82.107 4.45978V4.61131H82.1645C82.2082 4.60573 82.252 4.61232 82.2928 4.62956C82.333 4.64729 82.3684 4.67517 82.395 4.71115C82.4495 4.88143 82.4697 5.06135 82.4544 5.23975V5.83929H82.0348H81.1262H80.8382V5.20528C80.8235 5.03601 80.8436 4.86573 80.8977 4.70507C80.9257 4.67061 80.9615 4.64375 81.0023 4.62753C81.0426 4.61131 81.0869 4.60573 81.1301 4.61131H81.1856V4.45978C81.0928 4.45978 80.9999 4.47143 80.9124 4.47346C80.8254 4.47549 80.7267 4.47346 80.6505 4.47346C80.5743 4.47346 80.4947 4.47346 80.4038 4.47346C80.3124 4.47346 80.2176 4.47346 80.1193 4.45978V4.61131H80.1733C80.2171 4.60624 80.2613 4.61334 80.3006 4.6326C80.3404 4.65185 80.3743 4.68226 80.3979 4.72078C80.4495 4.87637 80.4697 5.04108 80.4574 5.20528C80.4574 5.24532 80.4574 5.32033 80.4574 5.43132C80.4574 5.54231 80.4574 5.63454 80.4574 5.70702V6.28224C80.4574 6.35876 80.4574 6.4581 80.4574 6.57922C80.4574 6.69984 80.4574 6.78397 80.4574 6.83009C80.4697 6.98618 80.45 7.1438 80.3999 7.29178C80.3758 7.32929 80.3424 7.35919 80.3031 7.37794C80.2638 7.39669 80.22 7.40429 80.1768 7.39922H80.1065V7.5467L80.4127 7.53505L80.6505 7.52339ZM48.1081 7.52339H48.3626L48.6654 7.53505V7.38554H48.5929C48.5486 7.39162 48.5035 7.38554 48.4621 7.36831C48.4207 7.35057 48.3845 7.32219 48.357 7.2857C48.3033 7.12099 48.2831 6.94614 48.2976 6.77231V6.09624H48.7397H49.0982C49.2654 6.09624 49.5273 6.09624 49.8859 6.09624H49.9137V6.83212C49.9272 6.99024 49.907 7.14988 49.8543 7.29938C49.8271 7.33486 49.7913 7.36274 49.7506 7.37997C49.7099 7.39669 49.6657 7.40277 49.622 7.3972H49.5515V7.5467L49.8543 7.53505H50.1069H50.3447L50.6512 7.5467V7.39922H50.5787C50.5361 7.40378 50.4931 7.39669 50.4543 7.37743C50.4156 7.35868 50.3828 7.32878 50.3595 7.29178C50.3085 7.1438 50.2882 6.98669 50.3001 6.83009C50.3001 6.78397 50.3001 6.70136 50.3001 6.57922C50.3001 6.45658 50.3001 6.35876 50.3001 6.28224V5.70702C50.3001 5.62897 50.3001 5.53116 50.3001 5.41054C50.3001 5.28941 50.3001 5.20731 50.3001 5.16322C50.2881 5.01169 50.3084 4.85914 50.3595 4.71672C50.3829 4.67973 50.4158 4.65033 50.4545 4.63158C50.4933 4.61283 50.5363 4.60624 50.5787 4.61131H50.6345V4.45978C50.536 4.45978 50.4487 4.47143 50.3521 4.47346C50.2555 4.47549 50.1812 4.47346 50.1069 4.47346C50.0326 4.47346 49.9323 4.47346 49.8431 4.47346C49.7539 4.47346 49.6574 4.47346 49.5682 4.45978V4.61131H49.6239C49.6677 4.60573 49.7121 4.61232 49.7528 4.62956C49.7935 4.64679 49.8291 4.67517 49.8561 4.71115C49.9105 4.88143 49.9307 5.06135 49.9156 5.23975V5.83929H49.4957H48.5873H48.2994V5.20528C48.2846 5.03601 48.3049 4.86573 48.3588 4.70507C48.3863 4.67061 48.4219 4.64375 48.4622 4.62753C48.5025 4.61081 48.5462 4.60573 48.5892 4.61131H48.6468V4.45978C48.5539 4.45978 48.461 4.47143 48.3719 4.47346C48.2827 4.47549 48.1861 4.47346 48.1099 4.47346C48.0338 4.47346 47.9539 4.47346 47.8629 4.47346C47.7718 4.47346 47.6771 4.47346 47.5786 4.45978V4.61131H47.6325C47.6764 4.60624 47.7209 4.61334 47.7609 4.6326C47.8009 4.65185 47.8349 4.68226 47.8591 4.72078C47.9106 4.87637 47.9308 5.04108 47.9186 5.20528C47.9186 5.24532 47.9186 5.32033 47.9186 5.43132C47.9186 5.54231 47.9186 5.63454 47.9186 5.70702V6.28224C47.9186 6.35876 47.9186 6.4581 47.9186 6.57922C47.9186 6.69984 47.9186 6.78397 47.9186 6.83009C47.9304 6.98669 47.9102 7.1438 47.8591 7.29178C47.8356 7.32878 47.8024 7.35868 47.7634 7.37794C47.7243 7.39669 47.681 7.40429 47.6381 7.39922H47.5656V7.5467L47.874 7.53505L48.1081 7.52339ZM67.1213 6.73633C67.238 6.83515 67.3724 6.90915 67.5169 6.95476C67.6891 7.00899 67.8683 7.03534 68.0482 7.03281H68.1225C68.1199 7.09058 68.1112 7.14785 68.0965 7.2036C68.0856 7.24516 68.0652 7.28317 68.0371 7.31459C68.0081 7.34348 67.9723 7.36426 67.9331 7.37389C67.8814 7.38656 67.8283 7.39264 67.7752 7.39112H67.7324V7.54062L68.0538 7.52947H68.3287H68.5814L68.9158 7.54062V7.39112H68.8712C68.8164 7.39264 68.7619 7.38503 68.7096 7.36831C68.6691 7.35716 68.6324 7.33486 68.6037 7.30344C68.5762 7.27202 68.5564 7.23451 68.5461 7.19397C68.5342 7.14126 68.5286 7.08703 68.5294 7.03281C68.6403 7.03331 68.751 7.02318 68.86 7.0024C68.9668 6.98365 69.0713 6.95324 69.1721 6.91219C69.2699 6.87215 69.3622 6.81944 69.4471 6.75508C69.6226 6.62686 69.753 6.4434 69.8186 6.23206C69.8549 6.1079 69.8725 5.97866 69.8706 5.84892C69.8717 5.69891 69.8426 5.54991 69.7851 5.41206C69.7281 5.2808 69.643 5.16423 69.5363 5.07098C69.4195 4.97215 69.285 4.89816 69.1405 4.85255C68.9684 4.79832 68.7892 4.77197 68.6093 4.77399H68.5331C68.5355 4.72179 68.5429 4.6701 68.5554 4.61891C68.5624 4.5809 68.5798 4.54593 68.6055 4.51755C68.6325 4.49019 68.6669 4.47245 68.704 4.46586C68.7563 4.45268 68.81 4.44711 68.8638 4.44863H68.8991V4.30115C68.7895 4.30115 68.6873 4.3123 68.5925 4.31432C68.4978 4.31635 68.4068 4.31432 68.3325 4.31432C68.2582 4.31432 68.1467 4.31432 68.0482 4.31432C67.9498 4.31432 67.8625 4.31432 67.7585 4.30115V4.44863H67.7956C67.8531 4.44761 67.9105 4.4542 67.9665 4.46789C68.0049 4.47802 68.04 4.4988 68.0687 4.52718C68.0925 4.55607 68.1085 4.59104 68.1151 4.62854C68.1231 4.67669 68.1269 4.72534 68.1263 4.77399C68.0155 4.77399 67.9049 4.78362 67.7956 4.80288C67.6887 4.82214 67.5842 4.85306 67.4835 4.89512C67.3858 4.93414 67.2934 4.98635 67.2086 5.0502C67.0334 5.17944 66.9032 5.3634 66.837 5.57525C66.8007 5.69586 66.7831 5.82206 66.785 5.94876C66.7828 6.09979 66.8119 6.24929 66.8705 6.38765C66.9259 6.52094 67.0097 6.64004 67.1157 6.73633H67.1213ZM68.5071 5.68218C68.5071 5.37405 68.5071 5.13838 68.5163 4.97722H68.5944C68.6417 4.97823 68.6888 4.98178 68.7356 4.98888C68.7989 4.99749 68.8612 5.0127 68.9214 5.03499C68.9867 5.05983 69.0491 5.09277 69.1071 5.1323C69.1718 5.17893 69.2288 5.2362 69.2762 5.30107C69.3297 5.37759 69.3717 5.46223 69.4006 5.55193C69.4358 5.66596 69.4539 5.78506 69.4545 5.90467C69.4592 6.04607 69.437 6.18746 69.3895 6.32024C69.3471 6.43123 69.2803 6.53006 69.1944 6.60963C69.1077 6.68768 69.0057 6.74494 68.8953 6.77839C68.7748 6.81539 68.6496 6.83414 68.5238 6.83363C68.4996 6.37599 68.4996 5.99285 68.4996 5.68218H68.5071ZM67.2662 5.49061C67.3058 5.38114 67.3694 5.28181 67.4519 5.20123C67.5389 5.12369 67.6409 5.06541 67.751 5.03094C67.8716 4.99445 67.9968 4.97621 68.1225 4.97722C68.13 5.43436 68.1331 5.8175 68.1318 6.12665C68.1318 6.43732 68.1318 6.67298 68.1225 6.83363H68.0445C67.9973 6.83313 67.9501 6.82907 67.9033 6.82248C67.8399 6.81336 67.7776 6.79715 67.7176 6.77434C67.6522 6.74951 67.5899 6.71656 67.5318 6.67653C67.4667 6.63142 67.4096 6.57517 67.3628 6.50979C67.3088 6.43275 67.2669 6.34761 67.2383 6.25689C67.2079 6.14236 67.1947 6.02326 67.1993 5.90467C67.1927 5.76378 67.2135 5.62289 67.2606 5.49061H67.2662ZM54.2309 7.52339H54.5356C54.6396 7.52339 54.7418 7.52339 54.844 7.53505V7.39314H54.7808C54.7336 7.39973 54.6855 7.39517 54.6399 7.38098C54.5944 7.36628 54.5525 7.34196 54.517 7.30902C54.4581 7.17877 54.4349 7.03433 54.4501 6.89141V6.23967L54.6712 6.26095H54.8198C55.1229 6.28072 55.4233 6.1905 55.6687 6.00603C55.7684 5.91987 55.8474 5.81091 55.8993 5.68826C55.9511 5.56511 55.9746 5.43132 55.9679 5.29701C55.9715 5.17944 55.9488 5.06236 55.9015 4.95492C55.8541 4.84748 55.7834 4.75322 55.6948 4.67821C55.485 4.51249 55.225 4.42937 54.961 4.44254L54.6842 4.45218C54.5412 4.45218 54.4186 4.45218 54.3127 4.45218H54.034C53.9392 4.45218 53.8482 4.45217 53.7498 4.43697V4.5885H53.7665C53.8508 4.57888 53.9355 4.60371 54.0024 4.65743C54.0545 4.73092 54.0778 4.82163 54.0675 4.91235V6.25335C54.0675 6.32025 54.0675 6.4064 54.0675 6.51587C54.0675 6.62483 54.0675 6.69781 54.0675 6.73785C54.081 6.91472 54.0608 7.09261 54.008 7.26087C53.9854 7.30141 53.9519 7.33385 53.9117 7.35463C53.8714 7.37541 53.8261 7.38351 53.7814 7.37794H53.7331H53.6996V7.51782L54.021 7.50616L54.2309 7.52339ZM54.4408 5.29904C54.4408 5.10747 54.4408 4.90475 54.4501 4.71115C54.5034 4.70203 54.5591 4.69443 54.6173 4.68784C54.6731 4.68784 54.7325 4.68784 54.8031 4.68784C55.0014 4.67922 55.1957 4.74764 55.3474 4.87941C55.4139 4.94276 55.4664 5.01979 55.5011 5.10595C55.5357 5.1916 55.5517 5.28485 55.548 5.37759C55.5544 5.47591 55.5394 5.57474 55.5041 5.66596C55.4687 5.75769 55.4139 5.8398 55.3437 5.90669C55.1718 6.03897 54.9594 6.10283 54.7455 6.08661H54.6062L54.4464 6.06735C54.4334 5.74756 54.4353 5.49669 54.4353 5.29904H54.4408ZM52.0575 7.51579H52.5683L53.1795 7.53505C53.2036 7.42203 53.2315 7.30699 53.2631 7.19194C53.2947 7.0769 53.3318 6.96033 53.3745 6.84124L53.2241 6.78954C53.1825 6.95121 53.0888 7.09312 52.9584 7.19194C52.7388 7.28063 52.5023 7.31611 52.2674 7.29533C52.1596 7.29533 52.063 7.29533 51.9739 7.29533C51.8847 7.29533 51.8067 7.28418 51.7361 7.27658C51.7361 7.13822 51.7361 7.0176 51.7361 6.91421C51.7361 6.81083 51.7361 6.72264 51.7361 6.61723C51.7361 6.56351 51.7361 6.47381 51.7361 6.34913C51.7361 6.22446 51.7361 6.12665 51.7361 6.0562H52.2599C52.4242 6.041 52.5897 6.0633 52.7448 6.12107C52.7819 6.14945 52.8108 6.18746 52.8288 6.23105C52.8468 6.27514 52.8531 6.32278 52.847 6.36991V6.38765H52.9845C52.9845 6.36434 52.9845 6.3319 52.9845 6.28578C52.9845 6.16314 52.9845 6.08256 52.9845 6.04455C52.9845 6.00603 52.9845 5.91024 52.9845 5.83372C52.9845 5.75719 52.9956 5.67458 53.0048 5.58488L52.873 5.57119C52.8751 5.61326 52.8666 5.65583 52.8483 5.69333C52.8302 5.73134 52.8028 5.76378 52.7689 5.7876C52.6409 5.83726 52.5039 5.85652 52.3677 5.84537H52.1188H51.8104H51.7454C51.7454 5.77138 51.7491 5.60819 51.7565 5.35681C51.7565 5.10747 51.7565 4.89512 51.7676 4.7223H51.8606H52.2897C52.4925 4.70406 52.6968 4.73497 52.886 4.81251C52.9374 4.85407 52.9785 4.90779 53.0056 4.96911C53.0328 5.03044 53.0452 5.09784 53.042 5.16524L53.1814 5.15156C53.1721 5.03652 53.1628 4.9235 53.1572 4.81049C53.1516 4.69747 53.146 4.5885 53.1442 4.47903C52.9807 4.48866 52.8191 4.49475 52.6612 4.49829C52.5033 4.50235 52.3454 4.49829 52.1912 4.49829C52.037 4.49829 51.8866 4.49829 51.6933 4.49829C51.5002 4.49829 51.2828 4.48866 51.0376 4.47903V4.62499C51.1234 4.61486 51.2096 4.6402 51.2772 4.69544C51.3295 4.76994 51.3533 4.86116 51.3441 4.95239C51.3441 5.09227 51.3441 5.22251 51.3441 5.33553C51.3441 5.44855 51.3441 5.5788 51.3441 5.7055V6.29338C51.3441 6.36991 51.3441 6.48495 51.3441 6.61165C51.3441 7.14988 51.2457 7.41798 51.0617 7.41798H51.0209H50.9912V7.55785H51.0673C51.5095 7.52339 51.8438 7.51579 52.0519 7.51579H52.0575ZM56.7555 7.51579H57.01L57.311 7.52745V7.37794H57.2385C57.1944 7.38402 57.1496 7.37794 57.1086 7.3602C57.0675 7.34297 57.0316 7.31459 57.0044 7.2781C56.9488 7.11339 56.9279 6.93854 56.9431 6.76471V6.09624H57.3853H57.7456C57.911 6.09624 58.1729 6.09624 58.5314 6.09624H58.5593V6.83212C58.5728 6.99024 58.5525 7.14988 58.4999 7.29938C58.473 7.33486 58.4376 7.36274 58.3972 7.37997C58.3569 7.39669 58.3128 7.40277 58.2695 7.3972H58.1952V7.5467L58.498 7.53505H58.7525H58.9903L59.2968 7.5467V7.39922H59.2113C59.1688 7.40378 59.1258 7.39618 59.0871 7.37743C59.0484 7.35817 59.0155 7.32878 58.9921 7.29178C58.9411 7.1438 58.9208 6.98669 58.9327 6.83009C58.9327 6.78397 58.9327 6.70136 58.9327 6.57922C58.9327 6.45658 58.9327 6.35876 58.9327 6.28224V5.70702C58.9327 5.62897 58.9327 5.53116 58.9327 5.41054C58.9327 5.28941 58.9327 5.20731 58.9327 5.16322C58.9207 5.01169 58.941 4.85914 58.9921 4.71672C59.0156 4.67973 59.0486 4.65084 59.0872 4.63209C59.1259 4.61334 59.1689 4.60624 59.2113 4.61131H59.2689V4.45978C59.1686 4.45978 59.0831 4.47143 58.9865 4.47346C58.8899 4.47549 58.8156 4.47346 58.7413 4.47346C58.667 4.47346 58.5667 4.47346 58.4757 4.47346C58.3847 4.47346 58.2899 4.47346 58.2007 4.45978V4.61131H58.2583C58.3018 4.60573 58.3459 4.61232 58.3863 4.62956C58.4267 4.64729 58.462 4.67517 58.4887 4.71115C58.543 4.88143 58.5633 5.06135 58.5482 5.23975V5.83929H58.1283H57.2199H56.932V5.20528C56.9172 5.03601 56.9374 4.86573 56.9914 4.70507C57.0193 4.67061 57.0552 4.64375 57.0958 4.62753C57.1364 4.61131 57.1804 4.60573 57.2236 4.61131H57.2794V4.45978C57.1865 4.45978 57.0936 4.47143 57.0063 4.47346C56.919 4.47549 56.8205 4.47346 56.7444 4.47346C56.6682 4.47346 56.5883 4.47346 56.4973 4.47346C56.4062 4.47346 56.3115 4.47346 56.2112 4.45978V4.61131H56.2669C56.3105 4.60624 56.3547 4.61384 56.3944 4.6331C56.4341 4.65236 56.4678 4.68277 56.4917 4.72078C56.5431 4.87637 56.5634 5.04108 56.5512 5.20528C56.5512 5.24532 56.5512 5.32033 56.5512 5.43132C56.5512 5.54231 56.5512 5.63454 56.5512 5.70702V6.28224C56.5512 6.35876 56.5512 6.4581 56.5512 6.57922C56.5512 6.69984 56.5512 6.78397 56.5512 6.83009C56.563 6.98669 56.5427 7.1438 56.4917 7.29178C56.4683 7.32929 56.4352 7.35919 56.3961 7.37794C56.357 7.3972 56.3136 7.40429 56.2707 7.39922H56.2V7.5467L56.5066 7.53505L56.7555 7.51579ZM62.7929 7.57356C62.866 7.57306 62.9389 7.56444 63.0102 7.54823C63.0758 7.53049 63.1384 7.50261 63.196 7.46612C63.2601 7.42457 63.3188 7.37541 63.3706 7.31864C63.4307 7.24871 63.4847 7.1737 63.5323 7.09413L64.0171 6.28376C64.1119 6.29541 64.2029 6.30099 64.2957 6.30302C64.3886 6.30504 64.4723 6.30302 64.554 6.30302V6.90256C64.555 6.99074 64.55 7.07842 64.5391 7.16508C64.534 7.2183 64.5168 7.26948 64.489 7.31459C64.465 7.34854 64.43 7.37236 64.3905 7.38199C64.3381 7.39365 64.2844 7.39872 64.2307 7.3972H64.1769V7.53859L64.4815 7.52745H64.7342H64.972L65.2785 7.53859V7.39112H65.206C65.1606 7.39264 65.1153 7.38503 65.0723 7.37034C65.0348 7.35463 65.0043 7.32523 64.9868 7.28773C64.961 7.23401 64.9452 7.17522 64.9404 7.11542C64.9303 7.0176 64.926 6.91878 64.9273 6.82046V6.67653C64.9273 6.64409 64.9273 6.6076 64.9273 6.56959C64.9273 6.53107 64.9273 6.49458 64.9273 6.45657V5.56764C64.9273 5.5119 64.9273 5.45615 64.9273 5.40091C64.9273 5.34516 64.9273 5.29549 64.9273 5.24735V5.15359C64.926 5.05831 64.9303 4.96303 64.9404 4.86826C64.9459 4.80947 64.9623 4.7522 64.9887 4.69949C65.0068 4.66351 65.0372 4.63513 65.0741 4.62094C65.1166 4.60624 65.1613 4.60016 65.206 4.60168H65.2617L65.2487 4.4466C65.1558 4.4466 65.063 4.45826 64.9738 4.4618H64.7044C64.6654 4.4618 64.6153 4.4618 64.5595 4.4618H64.3905H64.2326H64.1212C63.9575 4.45826 63.7945 4.48461 63.64 4.54036C63.5127 4.58445 63.3952 4.65388 63.2945 4.74561C63.2052 4.82467 63.1342 4.9235 63.0864 5.03499C63.041 5.13838 63.0176 5.25089 63.0177 5.36442C63.0157 5.47034 63.0308 5.57576 63.0623 5.67661C63.0901 5.76327 63.1322 5.84436 63.1867 5.91633C63.2383 5.98424 63.3012 6.04252 63.3725 6.08864C63.4436 6.13678 63.5204 6.1753 63.601 6.20368L63.2295 6.78954C63.1459 6.91979 63.0716 7.02723 63.0102 7.11339C62.958 7.18485 62.9009 7.25174 62.8393 7.31459C62.7967 7.35665 62.7478 7.39061 62.6945 7.41646C62.6499 7.43369 62.6028 7.44281 62.5551 7.44281H62.5347V7.56748L62.6629 7.58269L62.7929 7.57356ZM63.5713 5.80128C63.5292 5.7435 63.4971 5.67863 63.4765 5.60971C63.4512 5.52051 63.4393 5.42827 63.4412 5.33553C63.4398 5.24177 63.4595 5.14852 63.4988 5.06338C63.5356 4.9833 63.5896 4.91235 63.6567 4.8566C63.73 4.79629 63.8139 4.75169 63.9038 4.72433C64.0059 4.69088 64.1125 4.67466 64.2196 4.67669C64.2759 4.67365 64.3323 4.67365 64.3886 4.67669C64.4425 4.67669 64.4964 4.68987 64.5484 4.69949C64.5484 4.76487 64.5484 4.82619 64.5484 4.89107C64.5484 4.95644 64.5484 5.01168 64.5484 5.08264C64.5484 5.15359 64.5484 5.20731 64.5484 5.27421V5.49061C64.5484 5.56764 64.5484 5.6538 64.5484 5.74553V6.05215L64.4369 6.06938C64.3851 6.07546 64.333 6.07901 64.2809 6.07901C64.2122 6.07901 64.1434 6.07901 64.0747 6.06938C64.0078 6.06228 63.9419 6.04809 63.8778 6.02731C63.8164 6.00755 63.7577 5.98018 63.7032 5.94471C63.6497 5.90872 63.603 5.8626 63.5657 5.80888L63.5713 5.80128Z" fill="white"/>
</svg>
